<svg width="60" height="60" viewBox="0 0 60 60" fill="none" xmlns="http://www.w3.org/2000/svg">
<path d="M43.1249 44.9999C43.0015 45.0006 42.8792 44.977 42.765 44.9303C42.6508 44.8837 42.5469 44.8149 42.4593 44.7281L40.1156 42.3843C39.939 42.2078 39.8398 41.9683 39.8398 41.7187C39.8398 41.469 39.939 41.2296 40.1156 41.0531C40.2921 40.8765 40.5315 40.7773 40.7812 40.7773C41.0308 40.7773 41.2703 40.8765 41.4468 41.0531L43.1249 42.7406L47.1468 38.7093C47.3233 38.5328 47.5628 38.4336 47.8124 38.4336C48.0621 38.4336 48.3015 38.5328 48.4781 38.7093C48.6546 38.8858 48.7538 39.1253 48.7538 39.3749C48.7538 39.6246 48.6546 39.864 48.4781 40.0406L43.7906 44.7281C43.703 44.8149 43.5991 44.8837 43.4848 44.9303C43.3706 44.977 43.2483 45.0006 43.1249 44.9999Z" fill="#00A0E3"/>
<path d="M44.0622 53.4372C43.9783 53.4508 43.8929 53.4508 43.809 53.4372C41.182 52.6971 38.8688 51.1185 37.222 48.942C35.5753 46.7654 34.6851 44.1102 34.6872 41.3809V33.3372C34.6794 33.1267 34.7427 32.9198 34.8668 32.7498C34.991 32.5797 35.1688 32.4564 35.3715 32.3997L43.809 29.9997C43.9746 29.9532 44.1497 29.9532 44.3153 29.9997L52.7528 32.3997C52.9556 32.4564 53.1334 32.5797 53.2575 32.7498C53.3817 32.9198 53.4449 33.1267 53.4372 33.3372V41.3809C53.4331 44.1087 52.5406 46.7609 50.8947 48.9362C49.2488 51.1115 46.9392 52.6916 44.3153 53.4372C44.2315 53.4508 44.146 53.4508 44.0622 53.4372ZM36.5622 34.0497V41.3809C36.5628 42.9781 36.924 44.5546 37.6187 45.9928C38.3135 47.431 39.3239 48.6938 40.5747 49.6872C41.6101 50.5241 42.7929 51.16 44.0622 51.5622C46.2268 50.8858 48.1202 49.5384 49.4685 47.7149C50.8167 45.8914 51.55 43.6862 51.5622 41.4184V34.0497L44.0622 31.8747L36.5622 34.0497Z" fill="#2B2A29"/>
<path d="M14.7652 45.6467C14.1895 45.6449 13.6247 45.4895 13.1292 45.1964C12.6336 44.9034 12.2253 44.4835 11.9463 43.9799C11.6673 43.4763 11.5277 42.9074 11.542 42.3319C11.5563 41.7564 11.724 41.1951 12.0277 40.7061L17.6527 31.6123C17.6856 31.5485 17.7301 31.4912 17.7839 31.4436L35.1371 14.0623C36.4305 12.7682 38.0358 11.8295 39.7979 11.3368C41.56 10.8442 43.4194 10.8142 45.1964 11.2498C45.362 11.2909 45.5132 11.3763 45.6338 11.4969C45.7544 11.6175 45.8398 11.7687 45.8808 11.9342C46.3164 13.7113 46.2865 15.5706 45.7938 17.3327C45.3011 19.0948 44.3624 20.7001 43.0683 21.9936L25.7433 39.3748C25.6957 39.4286 25.6385 39.4731 25.5746 39.5061L16.4808 45.1311C15.9683 45.4597 15.374 45.6383 14.7652 45.6467ZM19.1996 32.6905L13.5746 41.6998C13.41 41.9606 13.3391 42.2696 13.3733 42.5761C13.4076 42.8826 13.545 43.1683 13.7631 43.3863C13.9811 43.6044 14.2668 43.7418 14.5733 43.7761C14.8798 43.8103 15.1888 43.7394 15.4496 43.5748L24.4589 37.9967L41.7746 20.7186C42.7679 19.7216 43.5056 18.4995 43.9251 17.1561C44.3446 15.8128 44.4334 14.388 44.184 13.003C42.7989 12.7575 41.3752 12.8482 40.0325 13.2675C38.6899 13.6868 37.4675 14.4223 36.4683 15.4123L19.1996 32.6905Z" fill="#2B2A29"/>
<path d="M13.3875 41.2498C13.1847 41.2498 12.9873 41.184 12.825 41.0623L7.28441 36.8435C7.17851 36.7624 7.09113 36.6596 7.02813 36.542C6.96512 36.4244 6.92794 36.2947 6.91907 36.1616C6.91019 36.0285 6.92983 35.895 6.97667 35.7701C7.0235 35.6452 7.09646 35.5317 7.19066 35.4373L9.17816 33.4498C9.2994 33.3309 9.45066 33.2472 9.61577 33.2075C9.78089 33.1679 9.95367 33.1739 10.1157 33.2248L16.2 35.3342C16.3337 35.3796 16.4554 35.4546 16.5561 35.5536C16.6567 35.6526 16.7337 35.7731 16.7813 35.906C16.8285 36.0382 16.8454 36.1792 16.8307 36.3187C16.8161 36.4583 16.7704 36.5928 16.6969 36.7123L14.1563 40.8092C14.0886 40.92 13.9987 41.0155 13.8922 41.0897C13.7857 41.164 13.6649 41.2153 13.5375 41.2404L13.3875 41.2498ZM9.27191 35.9998L13.125 38.9248L14.5032 36.7029L10.0782 35.1654L9.27191 35.9998Z" fill="#2B2A29"/>
<path d="M21.1029 50.2778H21.0467C20.9124 50.2681 20.7817 50.2296 20.6636 50.1649C20.5455 50.1002 20.4427 50.0108 20.3623 49.9028L16.1435 44.3622C16.0653 44.2583 16.0096 44.1392 15.9799 44.0126C15.9502 43.886 15.9471 43.7546 15.9709 43.6268C15.9947 43.4989 16.0449 43.3774 16.1182 43.27C16.1915 43.1626 16.2863 43.0716 16.3967 43.0028L20.4935 40.4622C20.613 40.3887 20.7475 40.3429 20.8871 40.3283C21.0266 40.3137 21.1677 40.3306 21.2998 40.3778C21.4327 40.4254 21.5532 40.5023 21.6522 40.603C21.7513 40.7036 21.8263 40.8253 21.8717 40.959L23.981 47.0434C24.032 47.2054 24.0379 47.3782 23.9983 47.5433C23.9587 47.7084 23.8749 47.8597 23.756 47.9809L21.7685 49.9684C21.6841 50.0621 21.5816 50.1378 21.4673 50.191C21.3529 50.2441 21.229 50.2737 21.1029 50.2778ZM18.2904 44.0528L21.2342 47.9153L22.0498 47.0997L20.5123 42.6747L18.2904 44.0528Z" fill="#2B2A29"/>
<path d="M24.4217 27.0748C24.2306 27.0743 24.0441 27.0155 23.8873 26.906L6.65609 14.9998C6.5429 14.9222 6.44812 14.8207 6.37847 14.7024C6.30881 14.5842 6.26597 14.452 6.25296 14.3154C6.24033 14.1781 6.25815 14.0397 6.30515 13.9101C6.35214 13.7804 6.42715 13.6627 6.52484 13.5654L10.4998 9.56229C10.6358 9.42607 10.8104 9.335 11 9.30146C11.1895 9.26791 11.3847 9.29352 11.5592 9.37479L31.4436 18.656C31.58 18.7194 31.6991 18.8146 31.791 18.9337C31.8829 19.0527 31.9447 19.1921 31.9714 19.3401C31.9981 19.4881 31.9887 19.6404 31.9442 19.784C31.8996 19.9277 31.8212 20.0585 31.7155 20.1654L25.0873 26.8029C24.9997 26.8898 24.8958 26.9585 24.7816 27.0052C24.6674 27.0519 24.5451 27.0755 24.4217 27.0748ZM8.64359 14.0623L24.3092 24.9185L29.4373 19.7904L11.3623 11.3529L8.64359 14.0623Z" fill="#2B2A29"/>
<path d="M17.4932 14.109C17.3089 14.1083 17.1289 14.0532 16.9758 13.9507C16.8226 13.8483 16.703 13.7029 16.632 13.5329C16.561 13.3628 16.5416 13.1756 16.5764 12.9946C16.6112 12.8136 16.6986 12.6469 16.8276 12.5153L17.7651 11.5778C17.9407 11.4032 18.1783 11.3052 18.426 11.3052C18.6737 11.3052 18.9113 11.4032 19.0869 11.5778C19.1748 11.6649 19.2446 11.7686 19.2922 11.8829C19.3398 11.9971 19.3643 12.1197 19.3643 12.2434C19.3643 12.3672 19.3398 12.4897 19.2922 12.604C19.2446 12.7182 19.1748 12.8219 19.0869 12.909L18.1494 13.8465C17.9733 14.0163 17.7378 14.1105 17.4932 14.109Z" fill="#2B2A29"/>
<path d="M22.9216 16.6498C22.7976 16.6493 22.6749 16.6242 22.5606 16.5759C22.4464 16.5276 22.3428 16.4572 22.256 16.3686C22.0814 16.1929 21.9834 15.9553 21.9834 15.7077C21.9834 15.46 22.0814 15.2224 22.256 15.0467L23.0998 14.203C23.2791 14.0494 23.5098 13.9691 23.7458 13.9782C23.9817 13.9874 24.2055 14.0852 24.3725 14.2521C24.5394 14.4191 24.6373 14.6429 24.6464 14.8789C24.6555 15.1148 24.5752 15.3455 24.4216 15.5248L23.5779 16.3686C23.4048 16.5452 23.1689 16.6463 22.9216 16.6498Z" fill="#2B2A29"/>
<path d="M35.6252 40.3122C35.474 40.3119 35.3252 40.2751 35.1913 40.2049C35.0575 40.1347 34.9426 40.0332 34.8564 39.909L30.2814 33.3465C30.1549 33.1662 30.0959 32.9472 30.1148 32.7278C30.1336 32.5084 30.2291 32.3026 30.3845 32.1465L37.0127 25.5184C37.1195 25.4107 37.251 25.3305 37.3957 25.2848C37.5404 25.2391 37.694 25.2291 37.8434 25.2559C37.9927 25.2826 38.1334 25.3452 38.2532 25.4383C38.3731 25.5314 38.4685 25.6522 38.5314 25.7903L41.2502 31.584C41.3073 31.7074 41.3368 31.8418 41.3368 31.9778C41.3368 32.1138 41.3073 32.2481 41.2502 32.3715C41.1927 32.4943 41.1093 32.6031 41.0057 32.6905C40.9021 32.7779 40.7808 32.8418 40.6502 32.8778L36.5627 34.0497V39.3747C36.5721 39.5814 36.5129 39.7856 36.3942 39.9551C36.2755 40.1247 36.1039 40.2503 35.9064 40.3122C35.8135 40.3301 35.718 40.3301 35.6252 40.3122ZM32.2689 32.8778L34.6877 36.3747V33.3372C34.6799 33.1267 34.7432 32.9198 34.8673 32.7498C34.9915 32.5797 35.1692 32.4564 35.372 32.3997L39.122 31.3403L37.397 27.7497L32.2689 32.8778Z" fill="#2B2A29"/>
</svg>
