<svg width="60" height="60" viewBox="0 0 60 60" fill="none" xmlns="http://www.w3.org/2000/svg">
<path d="M51.5625 15H34.6875V12.1875C34.6875 10.9443 34.1936 9.75201 33.3146 8.87294C32.4355 7.99386 31.2432 7.5 30 7.5C28.7568 7.5 27.5645 7.99386 26.6854 8.87294C25.8064 9.75201 25.3125 10.9443 25.3125 12.1875V15H8.4375C7.1943 15 6.00201 15.4939 5.12294 16.3729C4.24386 17.252 3.75 18.4443 3.75 19.6875V46.875C3.75 48.1182 4.24386 49.3105 5.12294 50.1896C6.00201 51.0686 7.1943 51.5625 8.4375 51.5625H51.5625C52.8057 51.5625 53.998 51.0686 54.8771 50.1896C55.7561 49.3105 56.25 48.1182 56.25 46.875V19.6875C56.25 18.4443 55.7561 17.252 54.8771 16.3729C53.998 15.4939 52.8057 15 51.5625 15ZM27.1875 12.1875C27.1861 11.6308 27.35 11.0862 27.6584 10.6227C27.9667 10.1592 28.4057 9.79767 28.9197 9.58384C29.4337 9.37001 29.9996 9.31353 30.5457 9.42154C31.0918 9.52956 31.5936 9.79722 31.9875 10.1906C33.0844 11.3062 32.8125 11.9625 32.8125 17.8125C32.8125 18.5584 32.5162 19.2738 31.9887 19.8012C31.4613 20.3287 30.7459 20.625 30 20.625C29.2541 20.625 28.5387 20.3287 28.0113 19.8012C27.4838 19.2738 27.1875 18.5584 27.1875 17.8125V12.1875ZM54.375 46.875C54.375 47.6209 54.0787 48.3363 53.5512 48.8637C53.0238 49.3912 52.3084 49.6875 51.5625 49.6875H8.4375C7.69158 49.6875 6.97621 49.3912 6.44876 48.8637C5.92132 48.3363 5.625 47.6209 5.625 46.875V19.6875C5.625 18.9416 5.92132 18.2262 6.44876 17.6988C6.97621 17.1713 7.69158 16.875 8.4375 16.875H25.3125V17.8125C25.3125 19.0557 25.8064 20.248 26.6854 21.1271C27.5645 22.0061 28.7568 22.5 30 22.5C31.2432 22.5 32.4355 22.0061 33.3146 21.1271C34.1936 20.248 34.6875 19.0557 34.6875 17.8125V16.875H51.5625C52.3084 16.875 53.0238 17.1713 53.5512 17.6988C54.0787 18.2262 54.375 18.9416 54.375 19.6875V46.875Z" fill="#2B2A29"/>
<path d="M48.75 25.3125H32.8125C32.5639 25.3125 32.3254 25.4113 32.1496 25.5871C31.9738 25.7629 31.875 26.0014 31.875 26.25V30.9375C31.875 31.1861 31.9738 31.4246 32.1496 31.6004C32.3254 31.7762 32.5639 31.875 32.8125 31.875H48.75C48.9986 31.875 49.2371 31.7762 49.4129 31.6004C49.5887 31.4246 49.6875 31.1861 49.6875 30.9375V26.25C49.6875 26.0014 49.5887 25.7629 49.4129 25.5871C49.2371 25.4113 48.9986 25.3125 48.75 25.3125ZM47.8125 30H33.75V27.1875H47.8125V30Z" fill="#2B2A29"/>
<path d="M48.75 35.625H32.8125C32.5639 35.625 32.3254 35.7238 32.1496 35.8996C31.9738 36.0754 31.875 36.3139 31.875 36.5625C31.875 36.8111 31.9738 37.0496 32.1496 37.2254C32.3254 37.4012 32.5639 37.5 32.8125 37.5H48.75C48.9986 37.5 49.2371 37.4012 49.4129 37.2254C49.5887 37.0496 49.6875 36.8111 49.6875 36.5625C49.6875 36.3139 49.5887 36.0754 49.4129 35.8996C49.2371 35.7238 48.9986 35.625 48.75 35.625Z" fill="#2B2A29"/>
<path d="M48.75 41.25H32.8125C32.5639 41.25 32.3254 41.3488 32.1496 41.5246C31.9738 41.7004 31.875 41.9389 31.875 42.1875C31.875 42.4361 31.9738 42.6746 32.1496 42.8504C32.3254 43.0262 32.5639 43.125 32.8125 43.125H48.75C48.9986 43.125 49.2371 43.0262 49.4129 42.8504C49.5887 42.6746 49.6875 42.4361 49.6875 42.1875C49.6875 41.9389 49.5887 41.7004 49.4129 41.5246C49.2371 41.3488 48.9986 41.25 48.75 41.25Z" fill="#2B2A29"/>
<path d="M27.4402 24.9372C18.2715 22.3216 18.8621 22.4341 18.4965 22.5372L10.059 24.9372C9.85618 24.9939 9.67839 25.1172 9.55424 25.2873C9.43009 25.4574 9.36681 25.6643 9.37459 25.8747C9.37459 33.8903 8.81209 37.0591 11.6433 41.081C13.9027 44.2685 17.7558 45.9372 18.7496 45.9372C19.1898 45.8583 19.6204 45.7326 20.034 45.5622C22.3905 44.6859 24.4222 43.1089 25.8558 41.0435C28.6683 37.0122 28.1246 33.806 28.1246 25.8372C28.124 25.6331 28.0569 25.4349 27.9333 25.2724C27.8098 25.11 27.6367 24.9923 27.4402 24.9372ZM17.9433 43.6872C16.1718 42.9836 14.6212 41.8182 13.4527 40.3122C13.8412 39.2167 14.5595 38.2684 15.5088 37.5978C16.4582 36.9272 17.5919 36.5671 18.7543 36.5671C19.9166 36.5671 21.0504 36.9272 21.9997 37.5978C22.9491 38.2684 23.6674 39.2167 24.0558 40.3122C22.947 41.7524 21.4883 42.8852 19.8183 43.6028C18.684 44.1091 18.8246 44.0622 17.9433 43.7341V43.6872ZM15.9371 31.8747C15.9371 31.3184 16.102 30.7747 16.4111 30.3122C16.7201 29.8496 17.1594 29.4892 17.6733 29.2763C18.1872 29.0634 18.7527 29.0077 19.2983 29.1162C19.8438 29.2248 20.345 29.4926 20.7383 29.886C21.1317 30.2793 21.3995 30.7804 21.508 31.326C21.6166 31.8716 21.5609 32.4371 21.348 32.951C21.1351 33.4649 20.7746 33.9042 20.3121 34.2132C19.8496 34.5223 19.3058 34.6872 18.7496 34.6872C18.0037 34.6872 17.2883 34.3909 16.7608 33.8634C16.2334 33.336 15.9371 32.6206 15.9371 31.8747ZM25.2277 38.4372C24.4451 37.0968 23.2659 36.0323 21.8527 35.3903C22.5661 34.7602 23.0708 33.9279 23.2996 33.0039C23.5284 32.08 23.4706 31.1083 23.1337 30.2181C22.7969 29.3279 22.197 28.5613 21.4138 28.0203C20.6307 27.4793 19.7014 27.1895 18.7496 27.1895C17.7978 27.1895 16.8685 27.4793 16.0853 28.0203C15.3022 28.5613 14.7023 29.3279 14.3655 30.2181C14.0286 31.1083 13.9707 32.08 14.1996 33.0039C14.4284 33.9279 14.9331 34.7602 15.6465 35.3903C14.2333 36.0323 13.0541 37.0968 12.2715 38.4372C10.9308 35.6247 11.2496 33.8622 11.2496 26.5497L18.7496 24.3747L26.2496 26.5122C26.2496 34.031 26.5402 35.6247 25.2277 38.4372Z" fill="#00A0E3"/>
</svg>
