<svg width="60" height="60" viewBox="0 0 60 60" fill="none" xmlns="http://www.w3.org/2000/svg">
<path d="M23.1656 28.3968C22.989 28.2203 22.7496 28.1211 22.4999 28.1211C22.2503 28.1211 22.0108 28.2203 21.8343 28.3968C21.6578 28.5733 21.5586 28.8128 21.5586 29.0624C21.5586 29.3121 21.6578 29.5515 21.8343 29.7281C28.0218 35.9156 27.5906 35.6249 28.1249 35.6249C28.6593 35.6249 28.0312 36.1031 38.1656 25.9781C38.3421 25.8015 38.4413 25.5621 38.4413 25.3124C38.4413 25.0628 38.3421 24.8233 38.1656 24.6468C37.989 24.4703 37.7496 24.3711 37.4999 24.3711C37.2503 24.3711 37.0108 24.4703 36.8343 24.6468L28.1249 33.3656L23.1656 28.3968Z" fill="#2B2A29"/>
<path d="M49.9403 9.37489C28.509 3.28114 30.1215 3.67489 29.7465 3.74989L10.059 9.37489C9.85626 9.4316 9.67847 9.55492 9.55432 9.72499C9.43017 9.89506 9.36688 10.102 9.37466 10.3124V29.2124C9.38488 35.3172 11.3766 41.2538 15.0503 46.1295C18.724 51.0053 23.8812 54.5567 29.7465 56.2499C29.9121 56.2963 30.0872 56.2963 30.2528 56.2499C36.1181 54.5567 41.2753 51.0053 44.9491 46.1295C48.6228 41.2538 50.6145 35.3172 50.6247 29.2124V10.3124C50.6324 10.102 50.5692 9.89506 50.445 9.72499C50.3209 9.55492 50.1431 9.4316 49.9403 9.37489ZM48.7497 29.2124C48.7391 34.8636 46.9103 40.3613 43.5337 44.8928C40.157 49.4242 35.4118 52.7488 29.9997 54.3749C24.5936 52.7506 19.8528 49.4317 16.4768 44.9078C13.1007 40.3839 11.2682 34.8946 11.2497 29.2499V11.0155L29.9997 5.62489L48.7497 10.978V29.2124Z" fill="#2B2A29"/>
<path d="M29.7469 7.68742L13.8094 12.2437C13.6159 12.2979 13.445 12.4127 13.3218 12.5714C13.1986 12.7301 13.1296 12.9241 13.125 13.1249V29.2124C13.1314 34.3065 14.7337 39.2705 17.7066 43.4071C20.6796 47.5436 24.8738 50.6448 29.7 52.2749C31.575 52.903 46.875 45.5343 46.875 29.2124V13.1249C46.8828 12.9145 46.8195 12.7076 46.6953 12.5375C46.5712 12.3674 46.3934 12.2441 46.1906 12.1874C28.7719 7.26554 30.1125 7.58429 29.7469 7.68742ZM45 13.8468V29.2124C45.001 33.8613 43.5583 38.3957 40.8714 42.1894C38.1844 45.983 34.3857 48.8487 30 50.3905C25.6143 48.8487 21.8156 45.983 19.1286 42.1894C16.4417 38.3957 14.999 33.8613 15 29.2124V13.8468L30 9.56242L45 13.8468Z" fill="#00A0E3"/>
</svg>
