<svg width="60" height="60" viewBox="0 0 60 60" fill="none" xmlns="http://www.w3.org/2000/svg">
<path d="M48.75 25.3123H47.8125C47.8125 6.12171 25.1719 0.421709 15.5063 14.0623C13.4063 16.9873 12.1875 20.1467 12.1875 25.3123H11.25C10.0068 25.3123 8.81451 25.8062 7.93544 26.6853C7.05636 27.5643 6.5625 28.7566 6.5625 29.9998V35.6248C6.5625 36.868 7.05636 38.0603 7.93544 38.9394C8.81451 39.8185 10.0068 40.3123 11.25 40.3123H12.3563C12.5812 40.9324 13.017 41.4536 13.5873 41.7849C14.1576 42.1163 14.8263 42.2366 15.4764 42.1249C16.1264 42.0132 16.7165 41.6766 17.1436 41.1739C17.5706 40.6712 17.8074 40.0344 17.8125 39.3748V26.2498C17.8127 25.7998 17.705 25.3562 17.4982 24.9564C17.2915 24.5567 16.9918 24.2123 16.6244 23.9524C16.257 23.6924 15.8326 23.5245 15.3868 23.4626C14.941 23.4007 14.4868 23.4467 14.0625 23.5967C14.2018 20.8763 15.0415 18.2379 16.5 15.9373C17.3088 16.4373 18.2591 16.6585 19.2056 16.5671C20.1521 16.4757 21.0425 16.0766 21.7406 15.4311C23.9911 13.357 26.9395 12.2056 30 12.2056C33.0605 12.2056 36.0089 13.357 38.2594 15.4311C38.959 16.0738 39.8492 16.471 40.7949 16.5623C41.7405 16.6537 42.6902 16.4343 43.5 15.9373C44.9585 18.2379 45.7982 20.8763 45.9375 23.5967C45.5132 23.4467 45.059 23.4007 44.6132 23.4626C44.1674 23.5245 43.743 23.6924 43.3756 23.9524C43.0082 24.2123 42.7085 24.5567 42.5018 24.9564C42.295 25.3562 42.1873 25.7998 42.1875 26.2498V39.3748C42.1877 39.791 42.2802 40.2019 42.4584 40.5779C42.6366 40.954 42.8961 41.2858 43.218 41.5495C43.54 41.8131 43.9164 42.002 44.3202 42.1026C44.724 42.2032 45.1451 42.2129 45.5531 42.1311C44.9509 44.3022 43.6543 46.2164 41.8614 47.5809C40.0685 48.9455 37.8781 49.6853 35.625 49.6873H33.5812C33.3878 49.1403 33.0299 48.6664 32.5566 48.3307C32.0833 47.995 31.5178 47.814 30.9375 47.8123H29.0625C28.3166 47.8123 27.6012 48.1087 27.0738 48.6361C26.5463 49.1635 26.25 49.8789 26.25 50.6248C26.25 51.3708 26.5463 52.0861 27.0738 52.6136C27.6012 53.141 28.3166 53.4373 29.0625 53.4373H30.9375C31.5178 53.4357 32.0833 53.2546 32.5566 52.919C33.0299 52.5833 33.3878 52.1094 33.5812 51.5623H35.625C38.7013 51.5714 41.6672 50.4169 43.9276 48.3303C46.1881 46.2437 47.5759 43.3795 47.8125 40.3123H48.75C49.9932 40.3123 51.1855 39.8185 52.0646 38.9394C52.9436 38.0603 53.4375 36.868 53.4375 35.6248V29.9998C53.4375 28.7566 52.9436 27.5643 52.0646 26.6853C51.1855 25.8062 49.9932 25.3123 48.75 25.3123ZM8.4375 35.6248V29.9998C8.4375 29.2539 8.73382 28.5385 9.26126 28.0111C9.78871 27.4836 10.5041 27.1873 11.25 27.1873H12.1875V38.4373H11.25C10.5041 38.4373 9.78871 38.141 9.26126 37.6136C8.73382 37.0861 8.4375 36.3708 8.4375 35.6248ZM15.9375 26.2498V39.3748C15.9375 39.6235 15.8387 39.8619 15.6629 40.0377C15.4871 40.2136 15.2486 40.3123 15 40.3123C14.7514 40.3123 14.5129 40.2136 14.3371 40.0377C14.1613 39.8619 14.0625 39.6235 14.0625 39.3748V26.2498C14.0625 26.0012 14.1613 25.7627 14.3371 25.5869C14.5129 25.4111 14.7514 25.3123 15 25.3123C15.2486 25.3123 15.4871 25.4111 15.6629 25.5869C15.8387 25.7627 15.9375 26.0012 15.9375 26.2498ZM39.5344 14.0623C36.9372 11.6667 33.5333 10.3366 30 10.3366C26.4667 10.3366 23.0628 11.6667 20.4656 14.0623C20.0774 14.4079 19.5932 14.627 19.0774 14.6907C18.5616 14.7543 18.0387 14.6594 17.5781 14.4186C19.0717 12.5606 20.963 11.0612 23.1128 10.0311C25.2626 9.0009 27.6161 8.46612 30 8.46612C32.3839 8.46612 34.7374 9.0009 36.8872 10.0311C39.037 11.0612 40.9283 12.5606 42.4219 14.4186C41.9613 14.6594 41.4384 14.7543 40.9226 14.6907C40.4068 14.627 39.9226 14.4079 39.5344 14.0623ZM30.9375 51.5623H29.0625C28.8139 51.5623 28.5754 51.4636 28.3996 51.2877C28.2238 51.1119 28.125 50.8735 28.125 50.6248C28.125 50.3762 28.2238 50.1377 28.3996 49.9619C28.5754 49.7861 28.8139 49.6873 29.0625 49.6873H30.9375C31.1861 49.6873 31.4246 49.7861 31.6004 49.9619C31.7762 50.1377 31.875 50.3762 31.875 50.6248C31.875 50.8735 31.7762 51.1119 31.6004 51.2877C31.4246 51.4636 31.1861 51.5623 30.9375 51.5623ZM44.0625 39.3748V26.2498C44.0625 26.0012 44.1613 25.7627 44.3371 25.5869C44.5129 25.4111 44.7514 25.3123 45 25.3123C45.2486 25.3123 45.4871 25.4111 45.6629 25.5869C45.8387 25.7627 45.9375 26.0012 45.9375 26.2498V39.3748C45.9375 39.6235 45.8387 39.8619 45.6629 40.0377C45.4871 40.2136 45.2486 40.3123 45 40.3123C44.7514 40.3123 44.5129 40.2136 44.3371 40.0377C44.1613 39.8619 44.0625 39.6235 44.0625 39.3748ZM51.5625 35.6248C51.5625 36.3708 51.2662 37.0861 50.7387 37.6136C50.2113 38.141 49.4959 38.4373 48.75 38.4373H47.8125V27.1873H48.75C49.4959 27.1873 50.2113 27.4836 50.7387 28.0111C51.2662 28.5385 51.5625 29.2539 51.5625 29.9998V35.6248Z" fill="#2B2A29"/>
<path d="M30.2528 44.0621C32.8759 43.3151 35.1847 41.7347 36.8303 39.5597C38.4759 37.3847 39.369 34.7332 39.3747 32.0058V23.9621C39.3824 23.7517 39.3192 23.5447 39.195 23.3747C39.0709 23.2046 38.8931 23.0813 38.6903 23.0246C29.5215 20.4183 30.1028 20.5308 29.7465 20.634L21.309 23.0246C21.1063 23.0813 20.9285 23.2046 20.8043 23.3747C20.6802 23.5447 20.6169 23.7517 20.6247 23.9621V32.0058C20.6303 34.7332 21.5234 37.3847 23.169 39.5597C24.8146 41.7347 27.1234 43.3151 29.7465 44.0621C29.9121 44.1085 30.0872 44.1085 30.2528 44.0621ZM22.4997 32.0058V24.6652L29.9997 22.4996L37.4997 24.6277V31.9683C37.5034 34.249 36.7775 36.471 35.4281 38.3096C34.0787 40.1482 32.1765 41.5069 29.9997 42.1871C27.8289 41.5088 25.9312 40.1558 24.5823 38.3247C23.2335 36.4937 22.5039 34.2801 22.4997 32.0058Z" fill="#00A0E3"/>
<path d="M33.0843 29.3343L29.0624 33.3656L27.3843 31.6781C27.2078 31.5015 26.9683 31.4023 26.7187 31.4023C26.469 31.4023 26.2296 31.5015 26.0531 31.6781C25.8765 31.8546 25.7773 32.094 25.7773 32.3437C25.7773 32.5933 25.8765 32.8328 26.0531 33.0093L28.3968 35.3531C28.484 35.4409 28.5876 35.5107 28.7019 35.5583C28.8161 35.6059 28.9387 35.6304 29.0624 35.6304C29.1862 35.6304 29.3087 35.6059 29.423 35.5583C29.5372 35.5107 29.6409 35.4409 29.7281 35.3531L34.4156 30.6656C34.5921 30.489 34.6913 30.2496 34.6913 29.9999C34.6913 29.7503 34.5921 29.5108 34.4156 29.3343C34.239 29.1578 33.9996 29.0586 33.7499 29.0586C33.5003 29.0586 33.2608 29.1578 33.0843 29.3343Z" fill="#2B2A29"/>
</svg>
