<svg width="33" height="33" viewBox="0 0 33 33" fill="none" xmlns="http://www.w3.org/2000/svg">
<g clip-path="url(#clip0_64_319)">
<path d="M26.6929 26.125H13.7638C12.2306 26.125 10.8721 25.0979 10.4624 23.628L6.09125 8.371C5.84375 7.48825 5.03113 6.875 4.11125 6.875H0.6875C0.308 6.875 0 6.567 0 6.1875C0 5.808 0.308 5.5 0.6875 5.5H4.11125C5.64438 5.5 7.00288 6.52713 7.41263 7.997L8.27475 11H30.9361C31.5948 11 32.1984 11.3025 32.5903 11.8305C32.9835 12.3585 33.1004 13.024 32.9106 13.6538L29.953 23.76C29.4773 25.1845 28.1696 26.125 26.6929 26.125ZM8.668 12.375L11.7851 23.254C12.0313 24.1368 12.8439 24.75 13.7638 24.75H26.6929C27.5646 24.75 28.3649 24.1739 28.6399 23.3503L31.5948 13.2605C31.658 13.0501 31.6181 12.8287 31.4875 12.6527C31.3569 12.4754 31.1561 12.375 30.9361 12.375H8.668Z" fill="white"/>
<path d="M15.125 33C13.6084 33 12.375 31.7666 12.375 30.25C12.375 28.7334 13.6084 27.5 15.125 27.5C16.6416 27.5 17.875 28.7334 17.875 30.25C17.875 31.7666 16.6416 33 15.125 33ZM15.125 28.875C14.366 28.875 13.75 29.4924 13.75 30.25C13.75 31.0076 14.366 31.625 15.125 31.625C15.884 31.625 16.5 31.0076 16.5 30.25C16.5 29.4924 15.884 28.875 15.125 28.875Z" fill="white"/>
<path d="M24.75 33C23.2334 33 22 31.7666 22 30.25C22 28.7334 23.2334 27.5 24.75 27.5C26.2666 27.5 27.5 28.7334 27.5 30.25C27.5 31.7666 26.2666 33 24.75 33ZM24.75 28.875C23.991 28.875 23.375 29.4924 23.375 30.25C23.375 31.0076 23.991 31.625 24.75 31.625C25.509 31.625 26.125 31.0076 26.125 30.25C26.125 29.4924 25.509 28.875 24.75 28.875Z" fill="white"/>
<g clip-path="url(#clip1_64_319)">
<path d="M20.5 13C19.0305 13 17.649 13.5715 16.6113 14.6113C15.5715 15.649 15 17.0305 15 18.5C15 19.9695 15.5715 21.351 16.6113 22.3887C17.6512 23.4264 19.0305 24 20.5 24C21.9695 24 23.351 23.4285 24.3887 22.3887C25.4285 21.3488 26 19.9695 26 18.5C26 17.0305 25.4285 15.649 24.3887 14.6113C23.351 13.5715 21.9695 13 20.5 13ZM20.5 23.1406C17.9412 23.1406 15.8594 21.0588 15.8594 18.5C15.8594 15.9412 17.9412 13.8594 20.5 13.8594C23.0588 13.8594 25.1406 15.9412 25.1406 18.5C25.1406 21.0588 23.0588 23.1406 20.5 23.1406ZM20.5 15.5566C18.8779 15.5566 17.5566 16.8779 17.5566 18.5C17.5566 20.1221 18.8779 21.4434 20.5 21.4434C22.1221 21.4434 23.4434 20.1221 23.4434 18.5C23.4434 16.8779 22.1221 15.5566 20.5 15.5566ZM20.5 20.584C19.3506 20.584 18.416 19.6494 18.416 18.5C18.416 17.3506 19.3506 16.416 20.5 16.416C21.6494 16.416 22.584 17.3506 22.584 18.5C22.584 19.6494 21.6494 20.584 20.5 20.584Z" fill="#A4A4A3"/>
<path d="M20.5 21.8516C20.3861 21.8516 20.2766 21.8967 20.1971 21.9783C20.1176 22.0578 20.0703 22.1695 20.0703 22.2812C20.0703 22.393 20.1154 22.5047 20.1971 22.5842C20.2766 22.6637 20.3883 22.7109 20.5 22.7109C20.6139 22.7109 20.7234 22.6658 20.8029 22.5842C20.8824 22.5047 20.9297 22.393 20.9297 22.2812C20.9297 22.1695 20.8846 22.0578 20.8029 21.9783C20.7234 21.8967 20.6139 21.8516 20.5 21.8516Z" fill="#A4A4A3"/>
<path d="M20.5 14.2891C20.3861 14.2891 20.2766 14.3342 20.1971 14.4158C20.1176 14.4953 20.0703 14.607 20.0703 14.7188C20.0703 14.8326 20.1154 14.9422 20.1971 15.0217C20.2766 15.1012 20.3883 15.1484 20.5 15.1484C20.6139 15.1484 20.7234 15.1033 20.8029 15.0217C20.8824 14.9422 20.9297 14.8305 20.9297 14.7188C20.9297 14.6049 20.8846 14.4953 20.8029 14.4158C20.7234 14.3342 20.6139 14.2891 20.5 14.2891Z" fill="#A4A4A3"/>
<path d="M16.7188 18.0703C16.6049 18.0703 16.4953 18.1154 16.4158 18.1971C16.3363 18.2766 16.2891 18.3883 16.2891 18.5C16.2891 18.6117 16.3342 18.7234 16.4158 18.8029C16.4953 18.8824 16.607 18.9297 16.7188 18.9297C16.8326 18.9297 16.9422 18.8846 17.0217 18.8029C17.1012 18.7234 17.1484 18.6117 17.1484 18.5C17.1484 18.3883 17.1033 18.2766 17.0217 18.1971C16.9422 18.1154 16.8326 18.0703 16.7188 18.0703Z" fill="#A4A4A3"/>
<path d="M24.2812 18.0703C24.1674 18.0703 24.0578 18.1154 23.9783 18.1971C23.8988 18.2766 23.8516 18.3883 23.8516 18.5C23.8516 18.6139 23.8967 18.7234 23.9783 18.8029C24.0578 18.8824 24.1695 18.9297 24.2812 18.9297C24.393 18.9297 24.5047 18.8846 24.5842 18.8029C24.6637 18.7234 24.7109 18.6117 24.7109 18.5C24.7109 18.3861 24.6658 18.2766 24.5842 18.1971C24.5047 18.1154 24.3951 18.0703 24.2812 18.0703Z" fill="#A4A4A3"/>
<path d="M22.4121 21.3145C22.2982 21.3145 22.1887 21.3596 22.1092 21.4412C22.0297 21.5207 21.9824 21.6324 21.9824 21.7441C21.9824 21.858 22.0275 21.9676 22.1092 22.0471C22.1887 22.1266 22.3004 22.1738 22.4121 22.1738C22.5238 22.1738 22.6355 22.1287 22.715 22.0471C22.7945 21.9676 22.8418 21.8559 22.8418 21.7441C22.8418 21.6303 22.7967 21.5207 22.715 21.4412C22.6355 21.3596 22.526 21.3145 22.4121 21.3145Z" fill="#A4A4A3"/>
<path d="M18.5879 14.8047C18.474 14.8047 18.3645 14.8498 18.285 14.9314C18.2055 15.0109 18.1582 15.1227 18.1582 15.2344C18.1582 15.3482 18.2033 15.4578 18.285 15.5373C18.3645 15.6168 18.4762 15.6641 18.5879 15.6641C18.7018 15.6641 18.8113 15.6189 18.8908 15.5373C18.9703 15.4578 19.0176 15.3461 19.0176 15.2344C19.0176 15.1205 18.9725 15.0109 18.8908 14.9314C18.8113 14.8498 18.7018 14.8047 18.5879 14.8047Z" fill="#A4A4A3"/>
<path d="M17.2344 20.0039C17.1205 20.0039 17.0109 20.049 16.9314 20.1307C16.852 20.2102 16.8047 20.3219 16.8047 20.4336C16.8047 20.5475 16.8498 20.657 16.9314 20.7365C17.0109 20.816 17.1227 20.8633 17.2344 20.8633C17.3461 20.8633 17.4578 20.8182 17.5373 20.7365C17.6168 20.657 17.6641 20.5453 17.6641 20.4336C17.6641 20.3197 17.6189 20.2102 17.5373 20.1307C17.4578 20.049 17.3482 20.0039 17.2344 20.0039Z" fill="#A4A4A3"/>
<path d="M23.7441 16.1367C23.6303 16.1367 23.5207 16.1818 23.4412 16.2635C23.3617 16.343 23.3145 16.4547 23.3145 16.5664C23.3145 16.6803 23.3596 16.7898 23.4412 16.8693C23.5207 16.9488 23.6324 16.9961 23.7441 16.9961C23.8559 16.9961 23.9676 16.951 24.0471 16.8693C24.1266 16.7898 24.1738 16.6781 24.1738 16.5664C24.1738 16.4547 24.1287 16.343 24.0471 16.2635C23.9676 16.1818 23.858 16.1367 23.7441 16.1367Z" fill="#A4A4A3"/>
<path d="M18.5664 21.3145C18.4525 21.3145 18.343 21.3596 18.2635 21.4412C18.184 21.5207 18.1367 21.6324 18.1367 21.7441C18.1367 21.858 18.1818 21.9676 18.2635 22.0471C18.343 22.1266 18.4547 22.1738 18.5664 22.1738C18.6781 22.1738 18.7898 22.1287 18.8693 22.0471C18.9488 21.9676 18.9961 21.8559 18.9961 21.7441C18.9961 21.6303 18.951 21.5207 18.8693 21.4412C18.7898 21.3596 18.6803 21.3145 18.5664 21.3145Z" fill="#A4A4A3"/>
<path d="M22.4121 14.8262C22.2982 14.8262 22.1887 14.8713 22.1092 14.9529C22.0297 15.0324 21.9824 15.1441 21.9824 15.2559C21.9824 15.3697 22.0275 15.4793 22.1092 15.5588C22.1887 15.6383 22.3004 15.6855 22.4121 15.6855C22.526 15.6855 22.6355 15.6404 22.715 15.5588C22.7945 15.4793 22.8418 15.3676 22.8418 15.2559C22.8418 15.142 22.7967 15.0324 22.715 14.9529C22.6355 14.8713 22.526 14.8262 22.4121 14.8262Z" fill="#A4A4A3"/>
<path d="M23.7441 19.9824C23.6303 19.9824 23.5207 20.0275 23.4412 20.1092C23.3617 20.1887 23.3145 20.3004 23.3145 20.4121C23.3145 20.5238 23.3596 20.6355 23.4412 20.715C23.5207 20.7945 23.6324 20.8418 23.7441 20.8418C23.8559 20.8418 23.9676 20.7967 24.0471 20.715C24.1266 20.6355 24.1738 20.5238 24.1738 20.4121C24.1738 20.2982 24.1287 20.1887 24.0471 20.1092C23.9676 20.0275 23.858 19.9824 23.7441 19.9824Z" fill="#A4A4A3"/>
<path d="M17.2344 16.1582C17.1205 16.1582 17.0109 16.2033 16.9314 16.285C16.852 16.3645 16.8047 16.4762 16.8047 16.5879C16.8047 16.7018 16.8498 16.8113 16.9314 16.8908C17.0109 16.9703 17.1227 17.0176 17.2344 17.0176C17.3482 17.0176 17.4578 16.9725 17.5373 16.8908C17.6168 16.8113 17.6641 16.6996 17.6641 16.5879C17.6641 16.474 17.6189 16.3645 17.5373 16.285C17.4578 16.2033 17.3482 16.1582 17.2344 16.1582Z" fill="#A4A4A3"/>
</g>
<g clip-path="url(#clip2_64_319)">
<path d="M236 33C236 163.339 130.339 269 0 269C-130.339 269 -236 163.339 -236 33C-236 -97.339 -130.339 -203 0 -203C130.339 -203 236 -97.339 236 33ZM0 -84C-64.617 -84 -117 -31.617 -117 33C-117 97.617 -64.617 150 0 150C64.617 150 117 97.617 117 33C117 -31.617 64.617 -84 0 -84Z" stroke="black" stroke-width="40" stroke-miterlimit="10" stroke-linecap="round" stroke-linejoin="round"/>
</g>
</g>
<defs>
<clipPath id="clip0_64_319">
<rect width="33" height="33" fill="white"/>
</clipPath>
<clipPath id="clip1_64_319">
<rect width="11" height="11" fill="white" transform="matrix(1 0 0 -1 15 24)"/>
</clipPath>
<clipPath id="clip2_64_319">
<rect width="512" height="512" fill="white" transform="translate(-256 -223)"/>
</clipPath>
</defs>
</svg>
