<svg width="21" height="21" viewBox="0 0 21 21" fill="none" xmlns="http://www.w3.org/2000/svg">
<path d="M20.6094 3.27344L18.2266 0.890625C17.9922 0.65625 17.6797 0.5 17.3281 0.5H10.9609C9.55469 0.5 8.46094 1.63281 8.46094 3V13C8.5 14.4062 9.59375 15.5 11 15.5H18.5C19.8672 15.5 21 14.4062 21 13V4.17188C21 3.82031 20.8438 3.50781 20.6094 3.27344ZM19.125 13C19.125 13.3516 18.8125 13.625 18.5 13.625H10.9609C10.6094 13.625 10.3359 13.3516 10.3359 13V3.03906C10.3359 2.6875 10.6094 2.41406 10.9609 2.41406H15.9609L16 4.25C16 4.95312 16.5469 5.5 17.25 5.5H19.0859V13H19.125ZM11.625 18C11.625 18.3516 11.3125 18.625 11 18.625H3.46094C3.10938 18.625 2.83594 18.3516 2.83594 18V8.03906C2.83594 7.6875 3.14844 7.41406 3.46094 7.41406H7.25V5.5H3.46094C2.09375 5.5 0.960938 6.63281 0.960938 8L1 18C1 19.4062 2.09375 20.5 3.5 20.5H11C12.3672 20.5 13.5 19.4062 13.5 18V16.75H11.625V18Z" fill="#2291C0"/>
</svg>
