<svg width="27" height="37" viewBox="0 0 27 37" fill="none" xmlns="http://www.w3.org/2000/svg">
<path d="M27 32C27 34.5312 24.9609 36.5 22.5 36.5H4.5C1.96875 36.5 0 34.5312 0 32H2.25C2.25 33.2656 3.23438 34.25 4.5 34.25H22.5C23.6953 34.25 24.75 33.2656 24.75 32H27ZM16.875 14C14.9766 14 13.5 12.5234 13.5 10.625V2.75H4.5C3.23438 2.75 2.25 3.80469 2.25 5V16.25H0V5C0 2.53906 1.96875 0.5 4.5 0.5H15.4688C16.3125 0.5 17.2266 0.921875 17.8594 1.55469L25.9453 9.64062C26.5781 10.2734 27 11.1875 27 12.0312V16.25H24.75V14H16.875ZM24.3984 11.2578L16.2422 3.10156C16.1016 2.96094 15.8906 2.89062 15.75 2.82031V10.625C15.75 11.2578 16.2422 11.75 16.875 11.75H24.6797C24.6094 11.6094 24.5391 11.3984 24.3984 11.2578ZM6.1875 18.5C8.29688 18.5 10.125 20.3281 10.125 22.4375C10.125 24.6172 8.29688 26.375 6.1875 26.375H5.625V28.625C5.625 29.2578 5.0625 29.75 4.5 29.75C3.86719 29.75 3.375 29.2578 3.375 28.625V19.625C3.375 19.0625 3.86719 18.5 4.5 18.5H6.1875ZM7.875 22.4375C7.875 21.5234 7.10156 20.75 6.1875 20.75H5.625V24.125H6.1875C7.10156 24.125 7.875 23.4219 7.875 22.4375ZM11.25 19.625C11.25 19.0625 11.7422 18.5 12.375 18.5H14.0625C15.8906 18.5 17.4375 20.0469 17.4375 21.875V26.375C17.4375 28.2734 15.8906 29.75 14.0625 29.75H12.375C11.7422 29.75 11.25 29.2578 11.25 28.625V19.625ZM13.5 27.5H14.0625C14.625 27.5 15.1875 27.0078 15.1875 26.375V21.875C15.1875 21.3125 14.625 20.75 14.0625 20.75H13.5V27.5ZM23.625 18.5C24.1875 18.5 24.75 19.0625 24.75 19.625C24.75 20.2578 24.1875 20.75 23.625 20.75H21.375V23H23.625C24.1875 23 24.75 23.5625 24.75 24.125C24.75 24.7578 24.1875 25.25 23.625 25.25H21.375V28.625C21.375 29.2578 20.8125 29.75 20.25 29.75C19.6172 29.75 19.125 29.2578 19.125 28.625V19.625C19.125 19.0625 19.6172 18.5 20.25 18.5H23.625Z" fill="#00A0E3"/>
</svg>
