<svg width="27" height="37" viewBox="0 0 27 37" fill="none" xmlns="http://www.w3.org/2000/svg">
<path d="M25.6641 9.35938L18.1406 1.83594C17.2969 0.992188 16.1719 0.5 14.9766 0.5H4.5C1.96875 0.5 0 2.53906 0 5V32C0 34.5312 1.96875 36.5 4.5 36.5H22.5C24.9609 36.5 27 34.5312 27 32V12.5234C27 11.3281 26.5078 10.2031 25.6641 9.35938ZM15.75 2.96094C16.0312 3.03125 16.3125 3.17188 16.5938 3.45312L24.0469 10.9062C24.3281 11.1875 24.4688 11.4688 24.5391 11.75H16.875C16.2422 11.75 15.75 11.2578 15.75 10.625V2.96094ZM24.75 32C24.75 33.2656 23.6953 34.25 22.5 34.25H4.5C3.23438 34.25 2.25 33.2656 2.25 32V5C2.25 3.80469 3.23438 2.75 4.5 2.75H13.5V10.625C13.5 12.5234 14.9766 14 16.875 14H24.75V32ZM10.125 9.5H5.625C4.99219 9.5 4.5 10.0625 4.5 10.625C4.5 11.2578 4.99219 11.75 5.625 11.75H10.125C10.6875 11.75 11.25 11.2578 11.25 10.625C11.25 10.0625 10.6875 9.5 10.125 9.5ZM10.125 5H5.625C4.99219 5 4.5 5.5625 4.5 6.125C4.5 6.75781 4.99219 7.25 5.625 7.25H10.125C10.6875 7.25 11.25 6.75781 11.25 6.125C11.25 5.5625 10.6875 5 10.125 5ZM10.125 14H5.625C4.99219 14 4.5 14.5625 4.5 15.125C4.5 15.7578 4.99219 16.25 5.625 16.25H10.125C10.6875 16.25 11.25 15.7578 11.25 15.125C11.25 14.5625 10.6875 14 10.125 14ZM10.125 18.5H5.625C4.99219 18.5 4.5 19.0625 4.5 19.625V23C4.5 24.8984 5.97656 26.375 7.875 26.375C9.70312 26.375 11.25 24.8984 11.25 23V19.625C11.25 19.0625 10.6875 18.5 10.125 18.5ZM9 23C9 23.6328 8.4375 24.125 7.875 24.125C7.24219 24.125 6.75 23.6328 6.75 23V20.75H9V23Z" fill="#00A0E3"/>
</svg>
