<svg width="135" height="67" viewBox="0 0 135 67" fill="none" xmlns="http://www.w3.org/2000/svg">
<path fill-rule="evenodd" clip-rule="evenodd" d="M30.61 7.15552C46.84 7.15552 60.0774 20.3726 60.0774 36.5777C60.0774 52.7828 46.84 65.9999 30.61 65.9999C14.38 65.9999 1.14258 52.7828 1.14258 36.5777C1.14258 20.3726 14.38 7.15552 30.61 7.15552ZM30.7473 10.8309C45.0253 10.8309 56.6709 22.4586 56.6709 36.7148C56.6709 50.9709 45.0253 62.5985 30.7473 62.5985C16.4692 62.5985 4.82364 50.9709 4.82364 36.7148C4.82364 22.4586 16.4692 10.8309 30.7473 10.8309Z" stroke="white" stroke-width="0.755906" stroke-miterlimit="22.9256"/>
<path fill-rule="evenodd" clip-rule="evenodd" d="M33.0912 54.2612C35.3158 54.2612 37.1198 56.0626 37.1198 58.2839C37.1198 60.505 35.3158 62.3062 33.0912 62.3062C30.8665 62.3062 29.0625 60.505 29.0625 58.2839C29.0625 56.0626 30.8665 54.2612 33.0912 54.2612Z" stroke="white" stroke-width="0.755906" stroke-miterlimit="22.9256"/>
<path fill-rule="evenodd" clip-rule="evenodd" d="M51.3685 25.427C53.5932 25.427 55.3973 27.2284 55.3973 29.4496C55.3973 31.6707 53.5932 33.4721 51.3685 33.4721C49.1438 33.4721 47.3398 31.6707 47.3398 29.4496C47.3398 27.2284 49.1438 25.427 51.3685 25.427Z" stroke="white" stroke-width="0.755906" stroke-miterlimit="22.9256"/>
<path fill-rule="evenodd" clip-rule="evenodd" d="M38.974 12.6917C41.1986 12.6917 43.0026 14.4927 43.0026 16.714C43.0026 18.9352 41.1986 20.7364 38.974 20.7364C36.7495 20.7364 34.9453 18.9352 34.9453 16.714C34.9453 14.4927 36.7495 12.6917 38.974 12.6917Z" stroke="white" stroke-width="0.755906" stroke-miterlimit="22.9256"/>
<path fill-rule="evenodd" clip-rule="evenodd" d="M30.4674 7.07861C46.6974 7.07861 59.9347 20.2955 59.9347 36.5008C59.9347 52.7059 46.6974 65.9229 30.4674 65.9229C14.2374 65.9229 1 52.7059 1 36.5008C1 20.2955 14.2374 7.07861 30.4674 7.07861V7.07861ZM30.6047 10.754C44.8828 10.754 56.5282 22.3816 56.5282 36.6379C56.5282 50.894 44.8828 62.5215 30.6047 62.5215C16.3265 62.5215 4.68107 50.894 4.68107 36.6379C4.68107 22.3816 16.3265 10.754 30.6047 10.754V10.754Z" stroke="white" stroke-width="0.755906" stroke-miterlimit="22.9256"/>
<path fill-rule="evenodd" clip-rule="evenodd" d="M15.1087 47.428C17.3334 47.428 19.1374 49.2292 19.1374 51.4503C19.1374 53.6715 17.3334 55.4729 15.1087 55.4729C12.8842 55.4729 11.0801 53.6715 11.0801 51.4503C11.0801 49.2292 12.8842 47.428 15.1087 47.428V47.428Z" stroke="white" stroke-width="0.755906" stroke-miterlimit="22.9256"/>
<path fill-rule="evenodd" clip-rule="evenodd" d="M30.9001 19.3818C40.5215 19.3818 48.3239 27.1721 48.3239 36.7787C48.3239 46.3854 40.5215 54.1757 30.9001 54.1757C21.2788 54.1757 13.4766 46.3854 13.4766 36.7787C13.4766 27.1721 21.2788 19.3818 30.9001 19.3818V19.3818Z" stroke="white" stroke-width="0.755906" stroke-miterlimit="22.9256"/>
<path fill-rule="evenodd" clip-rule="evenodd" d="M48.5873 45.2864C50.8119 45.2864 52.6159 47.0876 52.6159 49.3089C52.6159 51.5301 50.8119 53.3313 48.5873 53.3313C46.3628 53.3313 44.5586 51.5301 44.5586 49.3089C44.5586 47.0876 46.3628 45.2864 48.5873 45.2864Z" stroke="white" stroke-width="0.755906" stroke-miterlimit="22.9256"/>
<path fill-rule="evenodd" clip-rule="evenodd" d="M9.30015 30.699C11.5248 30.699 13.3288 32.5004 13.3288 34.7214C13.3288 36.9427 11.5248 38.7441 9.30015 38.7441C7.07548 38.7441 5.27148 36.9427 5.27148 34.7214C5.27148 32.5004 7.07548 30.699 9.30015 30.699Z" stroke="white" stroke-width="0.755906" stroke-miterlimit="22.9256"/>
<path fill-rule="evenodd" clip-rule="evenodd" d="M18.6558 14.6135C20.8803 14.6135 22.6844 16.4148 22.6844 18.636C22.6844 20.8573 20.8803 22.6585 18.6558 22.6585C16.4311 22.6585 14.627 20.8573 14.627 18.636C14.627 16.4148 16.4311 14.6135 18.6558 14.6135Z" stroke="white" stroke-width="0.755906" stroke-miterlimit="22.9256"/>
<path fill-rule="evenodd" clip-rule="evenodd" d="M38.8354 13.1836L89.8787 13.2789L86.0885 18.1725L35.0449 18.077L38.8354 13.1836Z" fill="#00A0E3"/>
<path fill-rule="evenodd" clip-rule="evenodd" d="M44.1276 6.50903H123.016L118.839 11.4787H39.9512L44.1276 6.50903Z" fill="#00A0E3"/>
<path fill-rule="evenodd" clip-rule="evenodd" d="M49.6959 0H135L130.484 4.97001H45.1797L49.6959 0Z" fill="#00A0E3"/>
<path d="M17.5764 40.7511L25.3993 40.2726C25.1467 41.5146 25.1692 42.4595 25.4596 43.1137C25.9309 44.1677 26.9453 44.6886 28.4864 44.6886C29.6329 44.6886 30.6081 44.4221 31.4139 43.8831C32.2136 43.3439 32.7325 42.72 32.97 42.0112C33.1956 41.3388 33.1077 40.733 32.692 40.2C32.2763 39.6669 31.0738 39.164 29.0725 38.6916C25.8078 37.898 23.6418 36.8499 22.5779 35.5356C21.5022 34.2211 21.3048 32.5491 21.9877 30.5138C22.4368 29.175 23.2497 27.909 24.4248 26.7216C25.5996 25.5343 27.0774 24.6014 28.8664 23.9169C30.6532 23.2384 32.9025 22.8994 35.6143 22.8994C38.9452 22.8994 41.2798 23.5173 42.6127 24.7529C43.9454 25.9887 44.3224 27.9573 43.7515 30.6532L36.0135 31.0954C36.2055 29.9262 36.0674 29.0722 35.5971 28.5389C35.1306 28.0121 34.3283 27.7454 33.1938 27.7454C32.2536 27.7454 31.4846 27.9393 30.8775 28.3391C30.272 28.7328 29.8729 29.2174 29.6818 29.7868C29.5437 30.1986 29.6136 30.5682 29.8901 30.9015C30.1568 31.2467 30.9489 31.5618 32.275 31.8585C35.5398 32.6158 37.7995 33.385 39.0622 34.1605C40.3249 34.936 41.114 35.893 41.4197 37.0438C41.7271 38.1889 41.6481 39.4729 41.1705 40.8965C40.6116 42.5624 39.6282 44.1012 38.2347 45.5065C36.8388 46.9179 35.1891 47.9839 33.2829 48.7109C31.3824 49.4379 29.1676 49.8013 26.6436 49.8013C22.2147 49.8013 19.4293 48.9532 18.2977 47.2451C17.1578 45.5428 16.9187 43.3802 17.5764 40.7511ZM50.4515 23.3415H73.239L71.4952 28.5389L51.7769 43.7679H66.92L65.0442 49.3591H40.3214L42.132 43.9618L61.6318 28.8963H48.5878L50.4515 23.3415ZM77.3644 23.3415H90.7481C93.6603 23.3415 95.6127 24.0321 96.5974 25.4193C97.5839 26.8003 97.6496 28.7752 96.7939 31.3255C95.9121 33.9546 94.4343 36.008 92.3548 37.486C90.2755 38.9642 87.6128 39.7033 84.3669 39.7033H79.9624L76.7231 49.3591H68.6358L77.3644 23.3415ZM81.7307 34.4331H83.7024C85.2555 34.4331 86.431 34.1666 87.2429 33.6272C88.0487 33.0882 88.5956 32.3977 88.8762 31.5618C89.1506 30.7439 89.111 30.0473 88.7542 29.484C88.4053 28.9146 87.4756 28.6299 85.9708 28.6299H83.6775L81.7307 34.4331ZM103.719 23.3415H111.77L108.472 33.173L120.215 23.3415H130.918L118.13 33.1549L122.614 49.3591H112.694L110.795 38.6552L105.173 43.0046L103.042 49.3591H94.9906L103.719 23.3415Z" fill="white"/>
<path d="M69.1763 60.3049C69.1763 60.3922 69.0975 60.4359 68.9398 60.4359H60.0808C58.9299 60.4359 57.9875 60.1033 57.2543 59.4377C56.5365 58.7924 56.1777 57.9724 56.1777 56.9775C56.1777 55.9692 56.5347 55.1407 57.2482 54.492C57.9616 53.8433 58.906 53.519 60.0808 53.519H68.0646C68.2143 53.519 68.2894 53.5628 68.2894 53.65V54.5878C68.2894 54.6684 68.2143 54.7088 68.0646 54.7088H62.8486C62.2729 54.7088 61.8827 54.8567 61.6778 55.1523C61.5277 55.3676 61.4529 55.7474 61.4529 56.2919V57.391C61.4529 57.9622 61.5239 58.3789 61.6659 58.6412C61.8787 59.0445 62.2729 59.2461 62.8486 59.2461H64.2443V55.9994C64.2443 55.912 64.319 55.8683 64.4689 55.8683H68.9398C69.0975 55.8683 69.1763 55.912 69.1763 55.9994V60.3049ZM85.3682 60.3249C85.3682 60.3989 85.2855 60.4359 85.12 60.4359H80.3889C80.31 60.4359 80.251 60.4191 80.2115 60.3856L75.6224 56.9673V56.2011C75.6224 56.1137 75.6973 56.0699 75.847 56.0699H77.4557C77.7554 56.0699 78.0233 56.0197 78.26 55.9188C78.5518 55.7911 78.6976 55.6129 78.6976 55.3844C78.6976 55.149 78.5518 54.9709 78.26 54.85C78.0314 54.756 77.7633 54.7088 77.4557 54.7088H74.9127V60.3049C74.9127 60.3922 74.8339 60.4359 74.6762 60.4359H70.2053C70.0555 60.4359 69.9807 60.3922 69.9807 60.3049V53.65C69.9807 53.5628 70.0555 53.519 70.2053 53.519H80.9095C82.108 53.519 82.9399 53.8686 83.4049 54.5676C83.5627 54.8095 83.6415 55.0651 83.6415 55.3341C83.6415 55.865 83.3655 56.3053 82.8135 56.6548C82.3563 56.9506 81.7885 57.1455 81.1102 57.2396L85.2974 60.2242C85.3448 60.2577 85.3682 60.2914 85.3682 60.3249ZM99.1122 56.9775C99.1122 57.9655 98.7494 58.789 98.0239 59.4479C97.2986 60.1066 96.3564 60.4359 95.1972 60.4359H88.7984C87.6473 60.4359 86.7069 60.1066 85.9776 59.4479C85.2482 58.789 84.8835 57.9655 84.8835 56.9775C84.8835 55.9692 85.2423 55.1407 85.9599 54.492C86.6776 53.8433 87.6236 53.519 88.7984 53.519H95.1972C96.3722 53.519 97.3184 53.8433 98.0356 54.492C98.7534 55.1407 99.1122 55.9692 99.1122 56.9775ZM93.8371 57.391V56.2919C93.8371 55.7474 93.7622 55.3676 93.6123 55.1523C93.4074 54.8567 93.017 54.7088 92.4413 54.7088H91.3414C90.7974 54.7088 90.4307 54.8667 90.2413 55.1827C90.1075 55.3977 90.0404 55.7674 90.0404 56.2919V57.391C90.0404 57.9489 90.1034 58.3589 90.2296 58.6208C90.4268 59.0377 90.7974 59.2461 91.3414 59.2461H92.4413C93.017 59.2461 93.4112 59.0445 93.624 58.6412C93.766 58.3789 93.8371 57.9622 93.8371 57.391ZM113.696 56.9171C113.696 57.9119 113.352 58.7387 112.667 59.3973C111.957 60.0896 111.023 60.4359 109.863 60.4359H103.465C102.306 60.4359 101.371 60.0896 100.662 59.3973C99.9756 58.7387 99.6326 57.9119 99.6326 56.9171V53.65C99.6326 53.5628 99.7114 53.519 99.8691 53.519H104.482C104.632 53.519 104.707 53.5628 104.707 53.65V57.391C104.707 57.9555 104.77 58.3656 104.896 58.6208C105.085 59.0377 105.456 59.2461 106.008 59.2461H109.923C111.058 59.2461 111.626 58.4261 111.626 56.7859V53.65C111.626 53.5628 111.701 53.519 111.851 53.519H113.471C113.62 53.519 113.696 53.5628 113.696 53.65V56.9171ZM128.172 55.3641C128.172 55.6466 128.086 55.9155 127.912 56.1708C127.415 56.9034 126.469 57.2699 125.074 57.2699H120.331C120.173 57.2699 120.094 57.2262 120.094 57.1387V56.2011C120.094 56.1137 120.173 56.0699 120.331 56.0699H121.927C122.227 56.0699 122.495 56.0197 122.732 55.9188C123.023 55.7911 123.169 55.6129 123.169 55.3844C123.169 55.149 123.023 54.9709 122.732 54.85C122.503 54.756 122.235 54.7088 121.927 54.7088H119.385V60.3049C119.385 60.3922 119.31 60.4359 119.16 60.4359H114.677C114.527 60.4359 114.453 60.3922 114.453 60.3049V53.65C114.453 53.5628 114.527 53.519 114.677 53.519H125.381C126.619 53.519 127.471 53.8719 127.936 54.5778C128.094 54.8265 128.172 55.0886 128.172 55.3641Z" fill="#00A0E3"/>
</svg>
