<svg width="30" height="30" viewBox="0 0 30 30" fill="none" xmlns="http://www.w3.org/2000/svg">
<path d="M28.5221 1.06812H1.47852C1.36975 1.06818 1.26547 1.11141 1.18856 1.18832C1.11165 1.26522 1.06842 1.36951 1.06836 1.47827V28.5219C1.06842 28.6306 1.11165 28.7349 1.18856 28.8118C1.26547 28.8887 1.36975 28.932 1.47852 28.932H28.5221C28.6309 28.932 28.7352 28.8887 28.8121 28.8118C28.889 28.7349 28.9322 28.6306 28.9323 28.5219V1.47827C28.9322 1.36951 28.889 1.26522 28.8121 1.18832C28.7352 1.11141 28.6309 1.06818 28.5221 1.06812ZM22.6337 11.0464V28.1117H15.4105V11.0464H22.6337ZM14.5902 28.1117H7.36695V11.0464H14.5902V28.1117ZM28.112 28.1117H23.454V10.6362C23.4539 10.5275 23.4107 10.4232 23.3338 10.3463C23.2569 10.2694 23.1526 10.2261 23.0438 10.2261H6.9568C6.84804 10.2261 6.74375 10.2694 6.66684 10.3463C6.58994 10.4232 6.5467 10.5275 6.54664 10.6362V28.1117H1.88867V1.88843H28.112V28.1117Z" fill="white"/>
<path d="M10.9785 7.82465H19.0218C19.1306 7.82459 19.2348 7.78135 19.3118 7.70445C19.3887 7.62754 19.4319 7.52325 19.432 7.41449V4.7002C19.432 4.59142 19.3887 4.48709 19.3118 4.41017C19.2349 4.33325 19.1306 4.29004 19.0218 4.29004H10.9785C10.9246 4.29001 10.8713 4.3006 10.8215 4.3212C10.7717 4.3418 10.7265 4.37201 10.6884 4.4101C10.6503 4.4482 10.6201 4.49342 10.5995 4.5432C10.5789 4.59297 10.5683 4.64632 10.5684 4.7002V7.41449C10.5684 7.52327 10.6116 7.6276 10.6885 7.70452C10.7654 7.78144 10.8697 7.82465 10.9785 7.82465ZM11.3887 5.10941H18.6116V7.0034H11.3887V5.10941Z" fill="#A4A4A3"/>
<path d="M25.7834 17.6412C26.1308 17.6412 26.4124 17.3595 26.4124 17.0121C26.4124 16.6647 26.1308 16.3831 25.7834 16.3831C25.4359 16.3831 25.1543 16.6647 25.1543 17.0121C25.1543 17.3595 25.4359 17.6412 25.7834 17.6412Z" fill="#A4A4A3"/>
<path d="M25.7834 20.2081C26.1308 20.2081 26.4124 19.9264 26.4124 19.579C26.4124 19.2316 26.1308 18.95 25.7834 18.95C25.4359 18.95 25.1543 19.2316 25.1543 19.579C25.1543 19.9264 25.4359 20.2081 25.7834 20.2081Z" fill="#A4A4A3"/>
<path d="M25.7834 22.775C26.1308 22.775 26.4124 22.4933 26.4124 22.1459C26.4124 21.7985 26.1308 21.5168 25.7834 21.5168C25.4359 21.5168 25.1543 21.7985 25.1543 22.1459C25.1543 22.4933 25.4359 22.775 25.7834 22.775Z" fill="#A4A4A3"/>
<path d="M9.75265 19.5988L10.5687 18.783V21.3655C10.5687 21.4743 10.612 21.5787 10.6889 21.6556C10.7658 21.7325 10.8701 21.7757 10.9789 21.7757C11.0877 21.7757 11.192 21.7325 11.2689 21.6556C11.3458 21.5787 11.3891 21.4743 11.3891 21.3655V18.783L12.2049 19.5988C12.2823 19.6735 12.3859 19.7148 12.4934 19.7139C12.601 19.7129 12.7039 19.6698 12.7799 19.5937C12.8559 19.5177 12.899 19.4148 12.8999 19.3072C12.9009 19.1997 12.8595 19.0961 12.7848 19.0187L11.2688 17.5028C11.2308 17.4647 11.1855 17.4345 11.1358 17.4138C11.086 17.3932 11.0327 17.3826 10.9788 17.3826C10.9249 17.3826 10.8716 17.3932 10.8218 17.4138C10.772 17.4345 10.7268 17.4647 10.6887 17.5028L9.17281 19.0187C9.09808 19.0961 9.05672 19.1997 9.05763 19.3072C9.05854 19.4148 9.10166 19.5177 9.17769 19.5937C9.25372 19.6698 9.35659 19.7129 9.46413 19.7139C9.57167 19.7148 9.67528 19.6735 9.75265 19.5988Z" fill="#A4A4A3"/>
<path d="M17.2158 20.1395L18.7317 21.6564C18.7698 21.6945 18.815 21.7247 18.8647 21.7454C18.9145 21.766 18.9678 21.7766 19.0216 21.7766C19.0755 21.7766 19.1288 21.766 19.1786 21.7454C19.2283 21.7247 19.2735 21.6945 19.3116 21.6564L20.8277 20.1405C20.9025 20.0631 20.9438 19.9595 20.9429 19.852C20.942 19.7444 20.8989 19.6416 20.8229 19.5655C20.7468 19.4894 20.644 19.4463 20.5364 19.4453C20.4289 19.4444 20.3253 19.4857 20.2479 19.5604L19.4318 20.3762V17.7927C19.4318 17.6839 19.3886 17.5796 19.3117 17.5027C19.2347 17.4258 19.1304 17.3826 19.0216 17.3826C18.9129 17.3826 18.8085 17.4258 18.7316 17.5027C18.6547 17.5796 18.6115 17.6839 18.6115 17.7927V20.3753L17.7956 19.5594C17.7183 19.4847 17.6146 19.4434 17.5071 19.4444C17.3996 19.4453 17.2967 19.4885 17.2207 19.5646C17.1446 19.6406 17.1015 19.7435 17.1006 19.851C17.0997 19.9586 17.1411 20.0622 17.2158 20.1395Z" fill="#A4A4A3"/>
</svg>
