<svg width="96" height="48" viewBox="0 0 96 48" fill="none" xmlns="http://www.w3.org/2000/svg">
<path fill-rule="evenodd" clip-rule="evenodd" d="M21.9917 5.09564C33.498 5.09564 42.8828 14.5078 42.8828 26.0478C42.8828 37.5878 33.498 47 21.9917 47C10.4853 47 1.10059 37.5878 1.10059 26.0478C1.10059 14.5078 10.4853 5.09564 21.9917 5.09564ZM22.089 7.71298C32.2115 7.71298 40.4677 15.9933 40.4677 26.1454C40.4677 36.2975 32.2115 44.5777 22.089 44.5777C11.9665 44.5777 3.71029 36.2975 3.71029 26.1454C3.71029 15.9933 11.9665 7.71298 22.089 7.71298Z" stroke="#2B2A29" stroke-width="0.755906" stroke-miterlimit="22.9256"/>
<path fill-rule="evenodd" clip-rule="evenodd" d="M23.7507 38.6406C25.3279 38.6406 26.6068 39.9234 26.6068 41.5052C26.6068 43.0869 25.3279 44.3696 23.7507 44.3696C22.1735 44.3696 20.8945 43.0869 20.8945 41.5052C20.8945 39.9234 22.1735 38.6406 23.7507 38.6406Z" stroke="#2B2A29" stroke-width="0.755906" stroke-miterlimit="22.9256"/>
<path fill-rule="evenodd" clip-rule="evenodd" d="M36.7087 18.1071C38.2859 18.1071 39.5649 19.3899 39.5649 20.9717C39.5649 22.5534 38.2859 23.8362 36.7087 23.8362C35.1315 23.8362 33.8525 22.5534 33.8525 20.9717C33.8525 19.3899 35.1315 18.1071 36.7087 18.1071Z" stroke="#2B2A29" stroke-width="0.755906" stroke-miterlimit="22.9256"/>
<path fill-rule="evenodd" clip-rule="evenodd" d="M27.9216 9.03806C29.4988 9.03806 30.7777 10.3206 30.7777 11.9024C30.7777 13.4842 29.4988 14.7669 27.9216 14.7669C26.3445 14.7669 25.0654 13.4842 25.0654 11.9024C25.0654 10.3206 26.3445 9.03806 27.9216 9.03806Z" stroke="#2B2A29" stroke-width="0.755906" stroke-miterlimit="22.9256"/>
<path fill-rule="evenodd" clip-rule="evenodd" d="M21.8911 5.04077C33.3974 5.04077 42.7821 14.4528 42.7821 25.9929C42.7821 37.5329 33.3974 46.945 21.8911 46.945C10.3847 46.945 1 37.5329 1 25.9929C1 14.4528 10.3847 5.04077 21.8911 5.04077V5.04077ZM21.9884 7.65811C32.1109 7.65811 40.367 15.9383 40.367 26.0905C40.367 36.2427 32.1109 44.5229 21.9884 44.5229C11.8658 44.5229 3.60971 36.2427 3.60971 26.0905C3.60971 15.9383 11.8658 7.65811 21.9884 7.65811V7.65811Z" stroke="#2B2A29" stroke-width="0.755906" stroke-miterlimit="22.9256"/>
<path fill-rule="evenodd" clip-rule="evenodd" d="M11.0026 33.7745C12.5798 33.7745 13.8588 35.0572 13.8588 36.6389C13.8588 38.2207 12.5798 39.5035 11.0026 39.5035C9.42555 39.5035 8.14648 38.2207 8.14648 36.6389C8.14648 35.0572 9.42555 33.7745 11.0026 33.7745V33.7745Z" stroke="#2B2A29" stroke-width="0.755906" stroke-miterlimit="22.9256"/>
<path fill-rule="evenodd" clip-rule="evenodd" d="M22.1973 13.8022C29.0184 13.8022 34.5499 19.3498 34.5499 26.1908C34.5499 33.032 29.0184 38.5796 22.1973 38.5796C15.3762 38.5796 9.84473 33.032 9.84473 26.1908C9.84473 19.3498 15.3762 13.8022 22.1973 13.8022V13.8022Z" stroke="#2B2A29" stroke-width="0.755906" stroke-miterlimit="22.9256"/>
<path fill-rule="evenodd" clip-rule="evenodd" d="M34.737 32.2495C36.3142 32.2495 37.5931 33.5322 37.5931 35.114C37.5931 36.6958 36.3142 37.9785 34.737 37.9785C33.1599 37.9785 31.8809 36.6958 31.8809 35.114C31.8809 33.5322 33.1599 32.2495 34.737 32.2495Z" stroke="#2B2A29" stroke-width="0.755906" stroke-miterlimit="22.9256"/>
<path fill-rule="evenodd" clip-rule="evenodd" d="M6.88446 21.8615C8.46165 21.8615 9.7406 23.1443 9.7406 24.7259C9.7406 26.3077 8.46165 27.5905 6.88446 27.5905C5.30727 27.5905 4.02832 26.3077 4.02832 24.7259C4.02832 23.1443 5.30727 21.8615 6.88446 21.8615Z" stroke="#2B2A29" stroke-width="0.755906" stroke-miterlimit="22.9256"/>
<path fill-rule="evenodd" clip-rule="evenodd" d="M13.5174 10.4066C15.0945 10.4066 16.3735 11.6893 16.3735 13.2711C16.3735 14.8529 15.0945 16.1356 13.5174 16.1356C11.9402 16.1356 10.6611 14.8529 10.6611 13.2711C10.6611 11.6893 11.9402 10.4066 13.5174 10.4066Z" stroke="#2B2A29" stroke-width="0.755906" stroke-miterlimit="22.9256"/>
<path fill-rule="evenodd" clip-rule="evenodd" d="M27.823 9.38831L64.0104 9.45618L61.3234 12.941L25.1357 12.873L27.823 9.38831Z" fill="#00A0E3"/>
<path fill-rule="evenodd" clip-rule="evenodd" d="M31.5762 4.63516H87.5042L84.5431 8.17418H28.6152L31.5762 4.63516Z" fill="#00A0E3"/>
<path fill-rule="evenodd" clip-rule="evenodd" d="M35.523 0H95.9998L92.798 3.53925H32.3213L35.523 0Z" fill="#00A0E3"/>
<path d="M12.7524 29.0198L18.2985 28.679C18.1194 29.5635 18.1354 30.2363 18.3412 30.7022C18.6754 31.4528 19.3945 31.8238 20.4871 31.8238C21.2999 31.8238 21.9913 31.6339 22.5626 31.2501C23.1295 30.8662 23.4974 30.4218 23.6658 29.9171C23.8258 29.4382 23.7634 29.0069 23.4687 28.6273C23.174 28.2476 22.3215 27.8896 20.9026 27.5531C18.5881 26.988 17.0525 26.2416 16.2983 25.3057C15.5356 24.3696 15.3957 23.1789 15.8798 21.7296C16.1983 20.7762 16.7746 19.8746 17.6077 19.029C18.4405 18.1835 19.4882 17.5192 20.7566 17.0318C22.0233 16.5486 23.6179 16.3072 25.5405 16.3072C27.9019 16.3072 29.5571 16.7472 30.5021 17.6271C31.4468 18.5071 31.7142 19.909 31.3094 21.8288L25.8235 22.1437C25.9596 21.3111 25.8617 20.7029 25.5283 20.3232C25.1976 19.948 24.6288 19.7581 23.8245 19.7581C23.1579 19.7581 22.6127 19.8962 22.1823 20.1809C21.753 20.4613 21.4701 20.8064 21.3346 21.2119C21.2367 21.5051 21.2863 21.7683 21.4823 22.0056C21.6713 22.2515 22.2329 22.4758 23.173 22.6872C25.4877 23.2264 27.0897 23.7742 27.9849 24.3264C28.8801 24.8787 29.4396 25.5602 29.6562 26.3797C29.8742 27.1951 29.8182 28.1096 29.4796 29.1233C29.0833 30.3096 28.3862 31.4054 27.3982 32.4062C26.4086 33.4113 25.239 34.1704 23.8876 34.6881C22.5403 35.2058 20.9701 35.4646 19.1806 35.4646C16.0407 35.4646 14.066 34.8606 13.2638 33.6443C12.4557 32.432 12.2861 30.892 12.7524 29.0198ZM36.0594 16.622H52.2147L50.9785 20.3232L36.999 31.1681H47.7348L46.405 35.1497H28.8776L30.1612 31.3062L43.9857 20.5777H34.7381L36.0594 16.622ZM55.1395 16.622H64.6279C66.6925 16.622 68.0767 17.1138 68.7748 18.1016C69.4742 19.0851 69.5207 20.4915 68.9141 22.3076C68.2889 24.1798 67.2412 25.6421 65.767 26.6946C64.2928 27.7473 62.4051 28.2736 60.1039 28.2736H56.9813L54.6847 35.1497H48.9512L55.1395 16.622ZM58.2349 24.5206H59.6328C60.7339 24.5206 61.5672 24.3308 62.1428 23.9467C62.7141 23.5629 63.1018 23.0711 63.3008 22.4758C63.4953 21.8934 63.4673 21.3973 63.2143 20.9962C62.967 20.5907 62.3078 20.388 61.241 20.388H59.6152L58.2349 24.5206ZM73.8239 16.622H79.5316L77.1932 23.6232L85.5189 16.622H93.1063L84.0408 23.6104L87.2191 35.1497H80.1865L78.8399 27.5273L74.8547 30.6245L73.3434 35.1497H67.6356L73.8239 16.622Z" fill="#2B2A29"/>
<path d="M49.3336 42.9443C49.3336 43.0065 49.2777 43.0376 49.1659 43.0376H42.8853C42.0693 43.0376 41.4012 42.8007 40.8814 42.3268C40.3725 41.8672 40.1182 41.2833 40.1182 40.5748C40.1182 39.8568 40.3712 39.2668 40.8771 38.8049C41.3829 38.3429 42.0524 38.112 42.8853 38.112H48.5454C48.6516 38.112 48.7048 38.1431 48.7048 38.2052V38.8731C48.7048 38.9304 48.6516 38.9592 48.5454 38.9592H44.8475C44.4394 38.9592 44.1627 39.0645 44.0174 39.2751C43.911 39.4284 43.8581 39.6988 43.8581 40.0866V40.8693C43.8581 41.276 43.9083 41.5728 44.009 41.7596C44.1599 42.0468 44.4394 42.1903 44.8475 42.1903H45.837V39.8783C45.837 39.8161 45.89 39.7849 45.9963 39.7849H49.1659C49.2777 39.7849 49.3336 39.8161 49.3336 39.8783V42.9443ZM60.8129 42.9586C60.8129 43.0113 60.7543 43.0376 60.6369 43.0376H57.2828C57.2269 43.0376 57.185 43.0257 57.157 43.0018L53.9036 40.5676V40.0219C53.9036 39.9596 53.9566 39.9285 54.0628 39.9285H55.2033C55.4158 39.9285 55.6057 39.8927 55.7735 39.8209C55.9804 39.7299 56.0838 39.6031 56.0838 39.4403C56.0838 39.2727 55.9804 39.1459 55.7735 39.0597C55.6114 38.9928 55.4214 38.9592 55.2033 38.9592H53.4004V42.9443C53.4004 43.0065 53.3445 43.0376 53.2328 43.0376H50.0631C49.9569 43.0376 49.9038 43.0065 49.9038 42.9443V38.2052C49.9038 38.1431 49.9569 38.112 50.0631 38.112H57.6518C58.5015 38.112 59.0914 38.3609 59.421 38.8587C59.5329 39.031 59.5888 39.2129 59.5888 39.4045C59.5888 39.7826 59.3931 40.0961 59.0017 40.345C58.6776 40.5556 58.275 40.6944 57.7942 40.7615L60.7627 42.8869C60.7963 42.9107 60.8129 42.9347 60.8129 42.9586ZM70.5568 40.5748C70.5568 41.2784 70.2996 41.8648 69.7853 42.334C69.271 42.8031 68.603 43.0376 67.7812 43.0376H63.2448C62.4287 43.0376 61.762 42.8031 61.245 42.334C60.7278 41.8648 60.4692 41.2784 60.4692 40.5748C60.4692 39.8568 60.7236 39.2668 61.2324 38.8049C61.7412 38.3429 62.4119 38.112 63.2448 38.112H67.7812C68.6142 38.112 69.285 38.3429 69.7935 38.8049C70.3024 39.2668 70.5568 39.8568 70.5568 40.5748ZM66.817 40.8693V40.0866C66.817 39.6988 66.7639 39.4284 66.6576 39.2751C66.5123 39.0645 66.2356 38.9592 65.8274 38.9592H65.0476C64.662 38.9592 64.402 39.0717 64.2677 39.2967C64.1728 39.4498 64.1252 39.7131 64.1252 40.0866V40.8693C64.1252 41.2666 64.1699 41.5585 64.2594 41.7451C64.3992 42.042 64.662 42.1903 65.0476 42.1903H65.8274C66.2356 42.1903 66.515 42.0468 66.6659 41.7596C66.7666 41.5728 66.817 41.276 66.817 40.8693ZM80.8957 40.5318C80.8957 41.2402 80.6524 41.829 80.1663 42.298C79.6632 42.791 79.0008 43.0376 78.1789 43.0376H73.6426C72.8209 43.0376 72.1583 42.791 71.6553 42.298C71.1689 41.829 70.9257 41.2402 70.9257 40.5318V38.2052C70.9257 38.1431 70.9816 38.112 71.0934 38.112H74.3636C74.4699 38.112 74.523 38.1431 74.523 38.2052V40.8693C74.523 41.2712 74.5677 41.5633 74.6572 41.7451C74.7914 42.042 75.0541 42.1903 75.4455 42.1903H78.2209C79.0259 42.1903 79.4283 41.6064 79.4283 40.4384V38.2052C79.4283 38.1431 79.4814 38.112 79.5877 38.112H80.7364C80.8425 38.112 80.8957 38.1431 80.8957 38.2052V40.5318ZM91.1592 39.4259C91.1592 39.6271 91.0977 39.8185 90.9748 40.0004C90.6225 40.5221 89.9519 40.783 88.9623 40.783H85.5999C85.4881 40.783 85.4322 40.7519 85.4322 40.6896V40.0219C85.4322 39.9596 85.4881 39.9285 85.5999 39.9285H86.7318C86.9442 39.9285 87.1345 39.8927 87.3021 39.8209C87.5088 39.7299 87.6122 39.6031 87.6122 39.4403C87.6122 39.2727 87.5088 39.1459 87.3021 39.0597C87.1398 38.9928 86.9498 38.9592 86.7318 38.9592H84.9291V42.9443C84.9291 43.0065 84.8758 43.0376 84.7697 43.0376H81.5916C81.4855 43.0376 81.4324 43.0065 81.4324 42.9443V38.2052C81.4324 38.1431 81.4855 38.112 81.5916 38.112H89.1804C90.0579 38.112 90.6618 38.3632 90.9915 38.8659C91.1033 39.043 91.1592 39.2297 91.1592 39.4259Z" fill="#00A0E3"/>
</svg>
