<svg width="31" height="31" viewBox="0 0 31 31" fill="none" xmlns="http://www.w3.org/2000/svg">
<path d="M25.9124 4.93848H24.3992C24.1733 4.93848 24.0303 5.08155 24.0303 5.23964H24.0303V10.133C24.0303 10.3362 24.2712 10.4416 24.5196 10.4416C24.7605 10.4416 25.009 10.3363 25.009 10.133V8.38644H25.8522C26.8459 8.38644 27.6213 7.91212 27.6213 6.6775V6.6324C27.6213 5.39772 26.8685 4.93848 25.9124 4.93848ZM26.6426 6.75282C26.6426 7.34001 26.3415 7.61858 25.8521 7.61858H25.009V5.79673H25.8521C26.3415 5.79673 26.6426 6.07531 26.6426 6.66249V6.75282Z" fill="#A4A4A3"/>
<path d="M17.7441 6.85145C16.315 5.4223 14.4149 4.63525 12.3938 4.63525C10.3727 4.63525 8.47258 5.4223 7.04344 6.85145C6.87094 7.02389 6.87094 7.30349 7.04344 7.47599C7.21587 7.64843 7.49548 7.64843 7.66792 7.47599C8.93026 6.21371 10.6086 5.51851 12.3937 5.51851C14.1789 5.51851 15.8572 6.21371 17.1195 7.47599C17.2058 7.56221 17.3188 7.60532 17.4318 7.60532C17.5448 7.60532 17.6578 7.56221 17.7441 7.47599C17.9166 7.30355 17.9166 7.02389 17.7441 6.85145Z" fill="#A4A4A3"/>
<path d="M15.9226 8.67332C13.9769 6.72771 10.8113 6.72771 8.8657 8.67332C8.6932 8.84576 8.6932 9.12542 8.8657 9.29786C9.03814 9.4703 9.31781 9.4703 9.49024 9.29786C11.0915 7.6967 13.6968 7.6967 15.298 9.29786C15.3842 9.38408 15.4972 9.42719 15.6103 9.42719C15.7232 9.42719 15.8363 9.38408 15.9226 9.29786C16.095 9.12542 16.095 8.84576 15.9226 8.67332Z" fill="#A4A4A3"/>
<path d="M14.1294 10.4664C13.1725 9.50956 11.6156 9.50956 10.6587 10.4664C10.4862 10.6389 10.4862 10.9185 10.6587 11.091C10.8311 11.2635 11.1108 11.2634 11.2832 11.091C11.8958 10.4785 12.8924 10.4785 13.5049 11.091C13.5911 11.1773 13.7042 11.2203 13.8172 11.2203C13.9301 11.2203 14.0432 11.1772 14.1294 11.091C14.3019 10.9185 14.3019 10.6389 14.1294 10.4664Z" fill="#A4A4A3"/>
<path d="M21.7313 19.0674C21.5403 18.9622 21.3517 18.847 21.171 18.725L18.25 16.7516C17.3635 16.1527 16.3293 15.8362 15.2595 15.8362H9.89799C8.47484 15.8362 7.13579 16.3894 6.12745 17.3939C5.60917 17.9103 5.01872 18.3422 4.3725 18.6778C3.99033 18.8762 3.75293 19.2668 3.75293 19.6971C3.75293 20.3308 4.26842 20.8463 4.90211 20.8463H6.73001C6.97389 20.8463 7.17163 20.6486 7.17163 20.4047C7.17163 20.1608 6.97389 19.963 6.73001 19.963H4.90211C4.75546 19.963 4.63612 19.8437 4.63612 19.6971C4.63612 19.5977 4.69104 19.5075 4.7795 19.4616C5.50551 19.0846 6.1688 18.5994 6.75078 18.0196C7.59237 17.1811 8.71006 16.7194 9.89793 16.7194H11.0983V19.963H9.6311C9.38722 19.963 9.18947 20.1608 9.18947 20.4047C9.18947 20.6486 9.38722 20.8463 9.6311 20.8463H21.7403C22.1033 20.8463 22.3987 20.5509 22.3987 20.1879C22.3987 19.723 22.1429 19.2936 21.7313 19.0674ZM11.9816 19.9631V16.7194H15.2595C16.1525 16.7194 17.0157 16.9837 17.7556 17.4835L20.6767 19.4569C20.8795 19.5939 21.0911 19.7232 21.3058 19.8413C21.3614 19.8719 21.408 19.9139 21.443 19.9631H11.9816Z" fill="white"/>
<path d="M13.0763 21.5176H11.7121C11.4683 21.5176 11.2705 21.7153 11.2705 21.9592C11.2705 22.2031 11.4683 22.4008 11.7121 22.4008H13.0763C13.3201 22.4008 13.5179 22.2031 13.5179 21.9592C13.5179 21.7153 13.3201 21.5176 13.0763 21.5176Z" fill="#A4A4A3"/>
<path d="M30.619 21.147L30.4795 20.9155C29.9538 20.043 29.0793 19.4287 28.0803 19.23L26.9402 19.0033V13.2243H29.8907C30.4982 13.2243 30.9924 12.73 30.9924 12.1226V3.52187C30.9924 2.91435 30.4982 2.42017 29.8907 2.42017H21.29C20.6825 2.42017 20.1883 2.91441 20.1883 3.52187V6.78443C20.1883 7.02831 20.386 7.22606 20.6299 7.22606C20.8739 7.22606 21.0716 7.02831 21.0716 6.78443V3.52187C21.0716 3.40138 21.1696 3.30336 21.2901 3.30336H29.8908C30.0113 3.30336 30.1094 3.40138 30.1094 3.52187V12.1226C30.1094 12.2431 30.0113 12.3412 29.8908 12.3412H21.29C21.1695 12.3412 21.0715 12.2431 21.0715 12.1226V9.65543C21.0715 9.41155 20.8738 9.2138 20.6299 9.2138C20.3859 9.2138 20.1882 9.41155 20.1882 9.65543V12.1226C20.1882 12.7302 20.6825 13.2243 21.29 13.2243H24.6358V18.5451L24.0497 18.4286C23.2408 18.2677 22.4522 17.7795 21.9293 17.4262L19.0083 15.4529C17.897 14.7022 16.6007 14.3054 15.2596 14.3054H9.89822C8.11422 14.3054 6.43568 14.9988 5.17189 16.2579C4.37219 17.0547 3.36555 17.5981 2.26075 17.8295L1.62671 17.9622C0.684116 18.1596 0 19.002 0 19.965V24.242C0 24.7522 0.301219 25.2158 0.767489 25.423L2.52649 26.2048C2.63287 26.761 2.90085 27.2922 3.33061 27.7219C3.90175 28.2931 4.65198 28.5787 5.40227 28.5787C6.15257 28.5787 6.90274 28.2931 7.47394 27.7219C7.84127 27.3546 8.08976 26.913 8.22084 26.4452H22.8874C23.0185 26.913 23.267 27.3546 23.6344 27.7219C24.1878 28.2753 24.9234 28.5801 25.706 28.5801C26.4886 28.5801 27.2244 28.2753 27.7778 27.7219C28.1451 27.3546 28.3936 26.913 28.5247 26.4452H29.3625C30.2654 26.4452 31 25.7106 31 24.8076V22.517C30.9999 22.0342 30.8681 21.5605 30.619 21.147ZM25.5191 13.2243H26.057V18.8276L25.5191 18.7207V13.2243ZM6.84934 27.0975C6.46281 27.484 5.94889 27.6969 5.40221 27.6969C4.85554 27.6969 4.34162 27.484 3.95509 27.0975C3.33503 26.4774 3.1971 25.5553 3.54065 24.8006C3.54343 24.7945 3.5461 24.7884 3.54888 24.7823C3.55936 24.7599 3.57044 24.7378 3.58176 24.7157C3.58709 24.7053 3.59241 24.695 3.59798 24.6847C3.60822 24.6655 3.61887 24.6465 3.62977 24.6276C3.63728 24.6146 3.64497 24.6017 3.65278 24.5889C3.66289 24.5722 3.67312 24.5557 3.68378 24.5392C3.69341 24.5244 3.70334 24.5098 3.71339 24.4952C3.72332 24.4807 3.73318 24.4662 3.74348 24.4519C3.75528 24.4356 3.76758 24.4197 3.77993 24.4037C3.78955 24.3912 3.79894 24.3786 3.80887 24.3663C3.8234 24.3483 3.8386 24.3308 3.85373 24.3132C3.86239 24.3032 3.87069 24.293 3.87953 24.2831C3.90205 24.2581 3.92524 24.2336 3.94909 24.2096C3.95115 24.2075 3.95303 24.2053 3.95509 24.2033C3.95963 24.1987 3.96441 24.1945 3.96901 24.19C3.98924 24.1702 4.00958 24.1505 4.03035 24.1317C4.03574 24.1268 4.04143 24.1223 4.04688 24.1174C4.06758 24.0991 4.08841 24.0808 4.10972 24.0635C4.11172 24.0618 4.11384 24.0603 4.11584 24.0587C4.86438 23.4529 5.94398 23.4536 6.69161 24.0611C6.69246 24.0618 6.69337 24.0624 6.69428 24.0632C6.7171 24.0818 6.73945 24.1012 6.76167 24.121C6.76566 24.1245 6.76978 24.1278 6.77372 24.1314C6.79939 24.1546 6.82457 24.1785 6.84928 24.2032C6.87592 24.2299 6.90159 24.2573 6.92654 24.2851C6.93749 24.2973 6.94785 24.3098 6.95844 24.3222C6.9714 24.3374 6.98442 24.3526 6.99689 24.368C7.01088 24.3854 7.02438 24.4031 7.0377 24.4208C7.04521 24.4306 7.05265 24.4406 7.05992 24.4505C7.07609 24.4728 7.09183 24.4953 7.10702 24.5182C7.10963 24.522 7.11217 24.526 7.11471 24.5299C7.6342 25.3233 7.54581 26.4009 6.84934 27.0975ZM27.1531 27.0975C26.7665 27.484 26.2526 27.6969 25.7059 27.6969C25.1592 27.6969 24.6454 27.484 24.2589 27.0975C23.5623 26.4009 23.4739 25.3231 23.9934 24.5297C23.9959 24.5259 23.9984 24.5221 24.0009 24.5184C24.0161 24.4955 24.0319 24.4729 24.0482 24.4505C24.0554 24.4406 24.0627 24.4307 24.0702 24.421C24.0836 24.4032 24.0971 24.3855 24.1112 24.368C24.1237 24.3526 24.1365 24.3376 24.1494 24.3226C24.1601 24.3101 24.1706 24.2974 24.1817 24.2851C24.2066 24.2573 24.2323 24.2299 24.2589 24.2033C24.6454 23.8167 25.1593 23.6039 25.706 23.6039C26.2527 23.6039 26.7666 23.8167 27.1531 24.2033C27.1797 24.2299 27.2054 24.2573 27.2304 24.2851C27.2414 24.2974 27.2517 24.31 27.2624 24.3224C27.2754 24.3375 27.2883 24.3526 27.3007 24.368C27.3148 24.3855 27.3283 24.4031 27.3417 24.4209C27.3491 24.4307 27.3565 24.4406 27.3638 24.4506C27.38 24.4729 27.3958 24.4954 27.4109 24.5182C27.4135 24.5221 27.4161 24.526 27.4186 24.5299C27.938 25.3233 27.8496 26.401 27.1531 27.0975ZM30.1168 24.8076H30.1167C30.1167 25.2236 29.7783 25.562 29.3623 25.562H28.6353C28.618 24.9215 28.3919 24.3104 27.985 23.8094C27.9823 23.806 27.9797 23.8025 27.9769 23.7991C27.9517 23.7684 27.9256 23.7383 27.8991 23.7084C27.8923 23.7007 27.8859 23.6929 27.8791 23.6852C27.851 23.6543 27.8219 23.624 27.7924 23.5941C27.7873 23.589 27.7827 23.5836 27.7776 23.5786C27.3972 23.1982 26.9305 22.9352 26.4218 22.8081C26.1905 22.7503 25.9505 22.7205 25.7059 22.7205C25.5103 22.7205 25.3176 22.7396 25.1299 22.7768C24.5669 22.8884 24.0493 23.1636 23.6343 23.5786C23.6293 23.5836 23.6248 23.5888 23.6198 23.5938C23.5902 23.6239 23.561 23.6543 23.5328 23.6854C23.5262 23.6927 23.52 23.7003 23.5135 23.7077C23.4867 23.7378 23.4603 23.7682 23.4349 23.7992C23.4324 23.8023 23.43 23.8055 23.4275 23.8087C23.0203 24.3098 22.794 24.9212 22.7766 25.5621H8.33152C8.31414 24.9204 8.08734 24.3083 7.67913 23.8068C7.67725 23.8044 7.67544 23.802 7.67356 23.7997C7.64692 23.7671 7.61925 23.7352 7.59109 23.7036C7.58589 23.6978 7.58104 23.6918 7.57578 23.686C7.54278 23.6496 7.50887 23.6137 7.47382 23.5787C7.33105 23.4359 7.17702 23.3109 7.01469 23.2038C6.52753 22.8826 5.96487 22.7219 5.40221 22.7219C4.65198 22.7219 3.90169 23.0075 3.33055 23.5787C3.29791 23.6113 3.26637 23.6448 3.23549 23.6787C3.22635 23.6887 3.21757 23.699 3.20855 23.7091C3.18675 23.7337 3.16532 23.7586 3.14443 23.7838C3.13517 23.795 3.1259 23.8063 3.11682 23.8176C3.0952 23.8446 3.07413 23.8718 3.05355 23.8994C3.04713 23.908 3.04053 23.9164 3.03429 23.9251C2.97896 24.0008 2.92761 24.0789 2.88014 24.159C2.87881 24.1613 2.87754 24.1636 2.87621 24.1658C2.85302 24.2052 2.8308 24.2452 2.80955 24.2856C2.80894 24.2867 2.80833 24.2879 2.80767 24.2891C2.6537 24.5821 2.55016 24.899 2.5027 25.2277L1.12629 24.6159C0.978676 24.5503 0.883315 24.4035 0.883315 24.242V19.965C0.883315 19.4176 1.27221 18.9389 1.80798 18.8266L2.44203 18.6938C3.71472 18.4272 4.87431 17.8013 5.79546 16.8835C6.89257 15.7905 8.34968 15.1885 9.89841 15.1885H15.2598C16.4241 15.1885 17.5493 15.5331 18.5141 16.1847L21.4351 18.158C22.0212 18.554 22.9122 19.1027 23.8776 19.2948L27.9082 20.0963C28.6639 20.2466 29.3254 20.7113 29.7231 21.3713L29.8626 21.6028C30.029 21.8787 30.1168 22.1949 30.1168 22.517V24.8076Z" fill="white"/>
<path d="M6.35038 24.7023C6.09705 24.449 5.76041 24.3096 5.40227 24.3096C5.04414 24.3096 4.70744 24.4491 4.45423 24.7023C4.20102 24.9555 4.06152 25.2922 4.06152 25.6503C4.06152 26.0085 4.20102 26.3452 4.45423 26.5984C4.70744 26.8516 5.04414 26.9911 5.40233 26.9911C5.76047 26.9911 6.09717 26.8516 6.35038 26.5984C6.87314 26.0756 6.87314 25.225 6.35038 24.7023ZM5.72578 25.9738C5.63938 26.0602 5.52446 26.1078 5.40227 26.1078C5.28003 26.1078 5.16517 26.0602 5.07877 25.9738C4.99237 25.8874 4.94472 25.7725 4.94472 25.6503C4.94472 25.528 4.99231 25.4132 5.07877 25.3268C5.16517 25.2404 5.28003 25.1927 5.40227 25.1927C5.52446 25.1927 5.63938 25.2403 5.72578 25.3268C5.90415 25.5052 5.90415 25.7955 5.72578 25.9738Z" fill="white"/>
<path d="M26.6544 24.7023C26.4012 24.4491 26.0645 24.3096 25.7063 24.3096C25.3482 24.3096 25.0116 24.449 24.7582 24.7023C24.2355 25.225 24.2355 26.0756 24.7582 26.5984C25.0115 26.8516 25.3482 26.9911 25.7063 26.9911C26.0645 26.9911 26.4012 26.8516 26.6544 26.5984C26.9077 26.3452 27.0471 26.0085 27.0471 25.6504C27.0471 25.2922 26.9077 24.9555 26.6544 24.7023ZM26.0298 25.9739C25.9434 26.0603 25.8286 26.1079 25.7063 26.1079C25.5842 26.1079 25.4692 26.0603 25.3828 25.9739C25.2045 25.7955 25.2045 25.5053 25.3828 25.3269C25.4692 25.2405 25.5842 25.1928 25.7063 25.1928C25.8286 25.1928 25.9434 25.2404 26.0299 25.3269C26.1163 25.4133 26.1639 25.5281 26.1639 25.6504C26.1639 25.7725 26.1164 25.8874 26.0298 25.9739Z" fill="white"/>
</svg>
