<svg width="15" height="13" viewBox="0 0 15 13" fill="none" xmlns="http://www.w3.org/2000/svg">
<path d="M13.9531 5.95703L1.70312 0.707031C1.59375 0.652344 1.48438 0.625 1.375 0.625C1.12891 0.625 0.882812 0.707031 0.71875 0.898438C0.472656 1.17188 0.417969 1.58203 0.582031 1.91016L3.125 6.75L0.582031 11.6172C0.417969 11.9453 0.472656 12.3555 0.71875 12.6016C0.882812 12.793 1.12891 12.9023 1.375 12.9023C1.48438 12.9023 1.59375 12.875 1.70312 12.8203L13.9531 7.57031C14.2812 7.43359 14.5 7.10547 14.5 6.75C14.4727 6.42188 14.2812 6.09375 13.9531 5.95703ZM2.30469 2.40234L10.9727 6.09375H4.24609L2.30469 2.40234ZM4.24609 7.40625H10.9727L2.30469 11.125L4.24609 7.40625Z" fill="white"/>
</svg>
