<svg width="34" height="34" viewBox="0 0 34 34" fill="none" xmlns="http://www.w3.org/2000/svg">
<path d="M30.4715 14.3698C30.0996 14.3698 29.7477 14.2235 29.482 13.9575L24.9664 9.43566C24.7008 9.16967 24.5547 8.81724 24.5547 8.44486C24.5547 8.07247 24.7008 7.72004 24.9664 7.45405L26.8855 5.53228C26.9785 5.43918 27.1047 5.38599 27.2375 5.38599C27.3703 5.38599 27.4965 5.43918 27.5895 5.53228L33.3734 11.3242C33.566 11.517 33.566 11.8362 33.3734 12.0291L31.4543 13.9508C31.1953 14.2235 30.8434 14.3698 30.4715 14.3698ZM27.2441 6.58959L25.677 8.15892C25.6039 8.23206 25.5574 8.33846 25.5574 8.44486C25.5574 8.55125 25.5973 8.651 25.677 8.73079L30.1926 13.2526C30.2656 13.3257 30.3719 13.3723 30.4781 13.3723C30.5844 13.3723 30.684 13.3324 30.7637 13.2526L32.3309 11.6833L27.2441 6.58959Z" fill="white"/>
<path d="M33.0287 12.182C32.8959 12.182 32.7698 12.1288 32.6768 12.0357L26.8928 6.24384C26.76 6.11085 26.7135 5.91801 26.7666 5.74511C26.8198 5.56557 26.9725 5.43923 27.1518 5.39933L29.3631 4.98705C29.4561 4.9671 29.5557 4.96045 29.6487 4.96045C30.067 4.96045 30.4655 5.12669 30.7576 5.41928L33.5401 8.20551C33.9186 8.58454 34.078 9.11652 33.9651 9.64185L33.5135 11.7897C33.4737 11.9692 33.3408 12.1155 33.1682 12.1621C33.1217 12.1754 33.0752 12.182 33.0287 12.182ZM28.2608 6.20395L32.7299 10.6792L32.9889 9.43571C33.0287 9.24287 32.969 9.05002 32.8362 8.91038L30.0537 6.12415C29.9209 5.99116 29.7283 5.93131 29.5424 5.96456L28.2608 6.20395Z" fill="white"/>
<path d="M27.847 15.3833C27.7208 15.3833 27.5946 15.3367 27.495 15.237L23.7431 11.4799C23.5505 11.287 23.5505 10.9678 23.7431 10.775C23.9356 10.5822 24.2544 10.5822 24.447 10.775L28.1989 14.5321C28.3915 14.7249 28.3915 15.0441 28.1989 15.237C28.0993 15.3301 27.9731 15.3833 27.847 15.3833Z" fill="white"/>
<path d="M9.02705 18.2581C8.90088 18.2581 8.77471 18.2116 8.6751 18.1118L4.17275 13.6033C3.98018 13.4105 3.98018 13.0913 4.17275 12.8984L7.92471 9.148C8.01768 9.05491 8.14385 9.00171 8.27666 9.00171C8.40947 9.00171 8.53564 9.05491 8.62861 9.148L12.5997 13.1245C12.7923 13.3174 12.7923 13.6366 12.5997 13.8294C12.4071 14.0222 12.0884 14.0222 11.8958 13.8294L8.27666 10.2053L5.23525 13.2509L9.379 17.407C9.57158 17.5998 9.57158 17.919 9.379 18.1118C9.27939 18.2116 9.15322 18.2581 9.02705 18.2581Z" fill="white"/>
<path d="M3.52861 14.3697C3.15674 14.3697 2.80479 14.2234 2.53916 13.9574L0.62002 12.0356C0.427441 11.8428 0.427441 11.5236 0.62002 11.3308L6.404 5.53887C6.49697 5.44578 6.62314 5.39258 6.75596 5.39258C6.88877 5.39258 7.01494 5.44578 7.10791 5.53887L9.02705 7.46064C9.29268 7.72663 9.43877 8.07906 9.43877 8.45145C9.43877 8.82383 9.29268 9.17627 9.02705 9.44226L4.51143 13.9641C4.25244 14.2234 3.90713 14.3697 3.52861 14.3697ZM1.67588 11.6832L3.24307 13.2525C3.31611 13.3257 3.42236 13.3722 3.52861 13.3722C3.63486 13.3722 3.73447 13.3323 3.81416 13.2525L8.32978 8.73074C8.40283 8.65759 8.44932 8.55119 8.44932 8.4448C8.44932 8.3384 8.40947 8.23866 8.32978 8.15886L6.7626 6.58953L1.67588 11.6832Z" fill="white"/>
<path d="M0.972242 12.182C0.925758 12.182 0.879274 12.1754 0.832789 12.1621C0.660133 12.1089 0.527321 11.9626 0.487477 11.7897L0.0359144 9.64185C-0.0703356 9.12317 0.0823988 8.58454 0.460914 8.20551L3.24334 5.41928C3.54216 5.12004 3.93396 4.96045 4.35232 4.96045C4.45193 4.96045 4.5449 4.9671 4.63787 4.98705L6.8492 5.39933C7.02849 5.43258 7.18123 5.56557 7.23435 5.74511C7.28748 5.92466 7.24099 6.1175 7.10818 6.24384L1.3242 12.0357C1.23123 12.1288 1.10505 12.182 0.972242 12.182ZM4.35232 5.95126C4.19959 5.95126 4.05349 6.0111 3.94724 6.1175L1.16482 8.90373C1.02537 9.04337 0.972242 9.23622 1.01209 9.42906L1.27107 10.6726L5.74021 6.1973L4.45857 5.95791C4.41873 5.95791 4.38552 5.95126 4.35232 5.95126Z" fill="white"/>
<path d="M7.804 13.7312C7.67783 13.7312 7.55166 13.6846 7.45205 13.5849C7.25947 13.3921 7.25947 13.0729 7.45205 12.88L9.55713 10.7721C9.74971 10.5792 10.0685 10.5792 10.261 10.7721C10.4536 10.9649 10.4536 11.2841 10.261 11.4769L8.15596 13.5849C8.05635 13.6846 7.93018 13.7312 7.804 13.7312Z" fill="white"/>
<path d="M9.02598 20.9961H2.50488C1.56855 20.9961 0.811523 20.238 0.811523 19.3004V18.9613C0.811523 18.0237 1.56855 17.2656 2.50488 17.2656H9.02598C9.29824 17.2656 9.52402 17.4917 9.52402 17.7644V20.4974C9.52402 20.77 9.30488 20.9961 9.02598 20.9961ZM2.50488 18.2631C2.11973 18.2631 1.80762 18.5756 1.80762 18.9613V19.3004C1.80762 19.6861 2.11973 19.9987 2.50488 19.9987H8.52793V18.2631H2.50488Z" fill="white"/>
<path d="M9.02598 23.729H2.50488C1.56855 23.729 0.811523 22.971 0.811523 22.0333V21.6942C0.811523 20.7566 1.56855 19.9985 2.50488 19.9985H9.02598C9.29824 19.9985 9.52402 20.2246 9.52402 20.4973V23.2303C9.52402 23.5029 9.30488 23.729 9.02598 23.729ZM2.50488 20.996C2.11973 20.996 1.80762 21.3085 1.80762 21.6942V22.0333C1.80762 22.419 2.11973 22.7316 2.50488 22.7316H8.52793V20.996H2.50488Z" fill="white"/>
<path d="M9.02598 26.4619H2.50488C1.56855 26.4619 0.811523 25.7039 0.811523 24.7663V24.4271C0.811523 23.4895 1.56855 22.7314 2.50488 22.7314H9.02598C9.29824 22.7314 9.52402 22.9575 9.52402 23.2302V25.9632C9.52402 26.2358 9.30488 26.4619 9.02598 26.4619ZM2.50488 23.7289C2.11973 23.7289 1.80762 24.0414 1.80762 24.4271V24.7663C1.80762 25.1519 2.11973 25.4645 2.50488 25.4645H8.52793V23.7289H2.50488Z" fill="white"/>
<path d="M31.483 20.9961H24.9619C24.6896 20.9961 24.4639 20.77 24.4639 20.4974V17.7644C24.4639 17.4917 24.6896 17.2656 24.9619 17.2656H31.483C32.4193 17.2656 33.1764 18.0237 33.1764 18.9613V19.3004C33.1764 20.2314 32.4193 20.9961 31.483 20.9961ZM25.46 19.9987H31.483C31.8682 19.9987 32.1803 19.6861 32.1803 19.3004V18.9613C32.1803 18.5756 31.8682 18.2631 31.483 18.2631H25.46V19.9987Z" fill="white"/>
<path d="M31.484 23.729H28.8078C28.5355 23.729 28.3098 23.5029 28.3098 23.2303C28.3098 22.9577 28.5355 22.7316 28.8078 22.7316H31.484C31.8691 22.7316 32.1812 22.419 32.1812 22.0333V21.6942C32.1812 21.3085 31.8691 20.996 31.484 20.996H25.4609V22.7316H26.477C26.7492 22.7316 26.975 22.9577 26.975 23.2303C26.975 23.5029 26.7492 23.729 26.477 23.729H24.9629C24.6906 23.729 24.4648 23.5029 24.4648 23.2303V20.4973C24.4648 20.2246 24.6906 19.9985 24.9629 19.9985H31.484C32.4203 19.9985 33.1773 20.7566 33.1773 21.6942V22.0333C33.1773 22.9643 32.4203 23.729 31.484 23.729Z" fill="white"/>
<path d="M31.483 26.4619H24.9619C24.6896 26.4619 24.4639 26.2358 24.4639 25.9632C24.4639 25.6906 24.6896 25.4645 24.9619 25.4645H31.483C31.8682 25.4645 32.1803 25.1519 32.1803 24.7663V24.4271C32.1803 24.0414 31.8682 23.7289 31.483 23.7289C31.2107 23.7289 30.985 23.5028 30.985 23.2302C30.985 22.9575 31.2107 22.7314 31.483 22.7314C32.4193 22.7314 33.1764 23.4895 33.1764 24.4271V24.7663C33.1764 25.6972 32.4193 26.4619 31.483 26.4619Z" fill="white"/>
<path d="M20.9832 34.0031H13.0012C12.2508 34.0031 11.6465 33.3913 11.6465 32.6466V30.2926L9.79375 28.8296C8.99023 28.1979 8.52539 27.2403 8.52539 26.2163V16.1885C8.52539 15.2841 9.05 14.4529 9.8668 14.0606L12.6027 12.7506C13.0742 12.5245 13.373 12.0457 13.373 11.5204V8.27534C13.373 8.0027 13.5988 7.77661 13.8711 7.77661H20.1133C20.3855 7.77661 20.6113 8.0027 20.6113 8.27534V11.5204C20.6113 12.0391 20.9168 12.5245 21.3816 12.7506L24.1176 14.0606C24.9344 14.4463 25.459 15.2841 25.459 16.1885V26.2163C25.459 27.2403 25.0008 28.1979 24.1906 28.8296L22.3379 30.2926V32.6466C22.3379 33.3913 21.7336 34.0031 20.9832 34.0031ZM14.3758 8.76742V11.5138C14.3758 12.4181 13.8512 13.2493 13.0344 13.6417L10.2984 14.9517C9.82695 15.1777 9.52813 15.6565 9.52813 16.1819V26.2096C9.52813 26.9278 9.85352 27.5928 10.418 28.0383L12.4633 29.6475C12.5828 29.7406 12.6559 29.8869 12.6559 30.0399V32.6333C12.6559 32.8327 12.8152 32.9923 13.0145 32.9923H20.9965C21.1957 32.9923 21.3551 32.8327 21.3551 32.6333V30.0399C21.3551 29.8869 21.4281 29.7406 21.5477 29.6475L23.593 28.0383C24.1574 27.5928 24.4828 26.9278 24.4828 26.2096V16.1885C24.4828 15.6698 24.1773 15.1844 23.7125 14.9583L20.9766 13.6483C20.1598 13.256 19.6352 12.4248 19.6352 11.5204V8.77407H14.3758V8.76742Z" fill="white"/>
<path d="M21.4545 8.75327H12.5361C11.8389 8.75327 11.2744 8.18805 11.2744 7.48983V3.58644C11.2744 2.88822 11.8389 2.323 12.5361 2.323H21.4545C22.1518 2.323 22.7162 2.88822 22.7162 3.58644V7.48983C22.7162 8.18805 22.1518 8.75327 21.4545 8.75327ZM12.5361 3.32711C12.39 3.32711 12.2705 3.4468 12.2705 3.59309V7.49648C12.2705 7.64277 12.39 7.76247 12.5361 7.76247H21.4545C21.6006 7.76247 21.7201 7.64277 21.7201 7.49648V3.59309C21.7201 3.4468 21.6006 3.32711 21.4545 3.32711H12.5361Z" fill="white"/>
<path d="M19.6072 3.32828H14.3877C14.1154 3.32828 13.8896 3.10219 13.8896 2.82955V1.37326C13.8896 0.621842 14.5006 0.00341797 15.2576 0.00341797H18.7373C19.4877 0.00341797 20.1053 0.615192 20.1053 1.37326V2.82955C20.1053 3.10219 19.8795 3.32828 19.6072 3.32828ZM14.8791 2.33082H19.1092V1.37326C19.1092 1.16712 18.9432 1.00088 18.7373 1.00088H15.251C15.0451 1.00088 14.8791 1.16712 14.8791 1.37326V2.33082Z" fill="white"/>
<path d="M20.9861 34.0026H13.0041C12.2537 34.0026 11.6494 33.3908 11.6494 32.6461V30.0527C11.6494 29.78 11.8752 29.554 12.1475 29.554H21.8428C22.115 29.554 22.3408 29.78 22.3408 30.0527V32.6461C22.3408 33.3908 21.7299 34.0026 20.9861 34.0026ZM12.6455 30.5448V32.6394C12.6455 32.8389 12.8049 32.9985 13.0041 32.9985H20.9861C21.1854 32.9985 21.3447 32.8389 21.3447 32.6394V30.5448H12.6455Z" fill="white"/>
<path d="M20.1787 31.7648C20.1787 32.0375 19.9596 32.2636 19.6807 32.2636C19.4084 32.2636 19.1826 32.0441 19.1826 31.7648C19.1826 31.4922 19.4018 31.2661 19.6807 31.2661C19.9596 31.2661 20.1787 31.4856 20.1787 31.7648Z" fill="white"/>
<path d="M14.8145 31.7648C14.8145 32.0375 14.5953 32.2636 14.3164 32.2636C14.0441 32.2636 13.8184 32.0441 13.8184 31.7648C13.8184 31.4922 14.0375 31.2661 14.3164 31.2661C14.5953 31.2661 14.8145 31.4856 14.8145 31.7648Z" fill="white"/>
<path d="M17.0033 20.7521C15.3631 20.7521 14.0283 19.4155 14.0283 17.773C14.0283 16.1305 15.3631 14.7939 17.0033 14.7939C18.6436 14.7939 19.9783 16.1305 19.9783 17.773C19.9783 19.4155 18.6436 20.7521 17.0033 20.7521ZM17.0033 15.7914C15.9076 15.7914 15.0244 16.6825 15.0244 17.773C15.0244 18.8636 15.9143 19.7546 17.0033 19.7546C18.099 19.7546 18.9822 18.8636 18.9822 17.773C18.9822 16.6825 18.0924 15.7914 17.0033 15.7914Z" fill="#A4A4A3"/>
<path d="M14.0639 27.9154C12.4236 27.9154 11.0889 26.5788 11.0889 24.9363C11.0889 23.2939 12.4236 21.9573 14.0639 21.9573C15.7041 21.9573 17.0389 23.2939 17.0389 24.9363C17.0389 26.5788 15.7041 27.9154 14.0639 27.9154ZM14.0639 22.9481C12.9682 22.9481 12.085 23.8391 12.085 24.9297C12.085 26.0203 12.9748 26.9113 14.0639 26.9113C15.1596 26.9113 16.0428 26.0203 16.0428 24.9297C16.0428 23.8391 15.1529 22.9481 14.0639 22.9481Z" fill="#A4A4A3"/>
<path d="M20.9975 25.0122C20.0146 25.0122 19.2178 24.2143 19.2178 23.2301C19.2178 22.246 20.0146 21.448 20.9975 21.448C21.9803 21.448 22.7771 22.246 22.7771 23.2301C22.7771 24.2143 21.9803 25.0122 20.9975 25.0122ZM20.9975 22.4388C20.5658 22.4388 20.2139 22.7912 20.2139 23.2235C20.2139 23.6557 20.5658 24.0081 20.9975 24.0081C21.4291 24.0081 21.7811 23.6557 21.7811 23.2235C21.7811 22.7912 21.4291 22.4388 20.9975 22.4388Z" fill="#A4A4A3"/>
<path d="M11.7636 24.5033C11.7038 24.5033 11.6374 24.49 11.5777 24.4634C11.3253 24.357 11.1991 24.0644 11.3054 23.8117L14.2273 16.6899C14.3335 16.4372 14.6257 16.3109 14.878 16.4173C15.1304 16.5237 15.2566 16.8162 15.1503 17.0689L12.2284 24.1908C12.1421 24.3903 11.9562 24.5033 11.7636 24.5033Z" fill="#A4A4A3"/>
<path d="M22.1468 23.1602C21.9608 23.1602 21.7882 23.0605 21.7019 22.8809L18.78 16.8962C18.6605 16.6502 18.7601 16.3509 19.0058 16.2312C19.2515 16.1115 19.5503 16.2113 19.6698 16.4573L22.5917 22.4421C22.7112 22.6881 22.6116 22.9873 22.3659 23.107C22.2929 23.1403 22.2198 23.1602 22.1468 23.1602Z" fill="#A4A4A3"/>
<path d="M15.1797 27.648C14.9871 27.648 14.8012 27.5349 14.7215 27.3488C14.6152 27.0961 14.7281 26.8035 14.9805 26.6904L21.2227 23.984C21.475 23.8776 21.7672 23.9907 21.8801 24.2433C21.9863 24.496 21.8734 24.7886 21.6211 24.9017L15.3789 27.6081C15.3125 27.6347 15.2461 27.648 15.1797 27.648Z" fill="#A4A4A3"/>
<path d="M17.4971 17.7731C17.4971 18.0458 17.2779 18.2719 16.999 18.2719C16.7268 18.2719 16.501 18.0524 16.501 17.7731C16.501 17.5005 16.7201 17.2744 16.999 17.2744C17.2779 17.2744 17.4971 17.5005 17.4971 17.7731Z" fill="#A4A4A3"/>
<path d="M14.5576 24.9365C14.5576 25.2091 14.3385 25.4352 14.0596 25.4352C13.7807 25.4352 13.5615 25.2158 13.5615 24.9365C13.5615 24.6572 13.7807 24.4377 14.0596 24.4377C14.3385 24.4377 14.5576 24.6572 14.5576 24.9365Z" fill="#A4A4A3"/>
<path d="M13.3975 5.42959H11.7705C11.4982 5.42959 11.2725 5.2035 11.2725 4.93086C11.2725 4.65822 11.4982 4.43213 11.7705 4.43213H13.3975C13.6697 4.43213 13.8955 4.65822 13.8955 4.93086C13.8955 5.2035 13.6697 5.42959 13.3975 5.42959Z" fill="white"/>
<path d="M22.2162 5.42959H15.7217C15.4494 5.42959 15.2236 5.2035 15.2236 4.93086C15.2236 4.65822 15.4494 4.43213 15.7217 4.43213H22.2162C22.4885 4.43213 22.7143 4.65822 22.7143 4.93086C22.7143 5.2035 22.4885 5.42959 22.2162 5.42959Z" fill="white"/>
<path d="M24.9626 18.2734C24.8364 18.2734 24.7103 18.2269 24.6106 18.1271C24.4181 17.9343 24.4181 17.6151 24.6106 17.4223L28.7743 13.2529L25.7329 10.2073L22.1071 13.8314C21.9146 14.0243 21.5958 14.0243 21.4032 13.8314C21.2106 13.6386 21.2106 13.3194 21.4032 13.1265L25.381 9.14336C25.4739 9.05027 25.6001 8.99707 25.7329 8.99707C25.8657 8.99707 25.9919 9.05027 26.0849 9.14336L29.8368 12.8938C30.0294 13.0866 30.0294 13.4058 29.8368 13.5987L25.3212 18.1205C25.2149 18.2202 25.0888 18.2734 24.9626 18.2734Z" fill="white"/>
</svg>
