<svg width="31" height="29" viewBox="0 0 31 29" fill="none" xmlns="http://www.w3.org/2000/svg">
<g clip-path="url(#clip0_64_230)">
<path d="M17.6236 28.9993H4.10352C3.85527 28.9993 3.64941 28.7977 3.64941 28.5545V6.49319C3.64941 5.68071 4.17617 4.96312 4.96328 4.70811L17.4783 0.586436C17.6176 0.538993 17.7689 0.562715 17.89 0.645741C18.0111 0.728768 18.0777 0.865169 18.0777 1.0075V28.5545C18.0777 28.8036 17.8719 28.9993 17.6236 28.9993ZM4.55762 28.1097H17.1695V1.6302L5.24785 5.55617C4.83613 5.69257 4.55762 6.07212 4.55762 6.49912V28.1097Z" fill="white"/>
<path d="M25.2328 29.0028H17.6221C17.3738 29.0028 17.168 28.8012 17.168 28.558V13.6132C17.168 13.3701 17.3738 13.1685 17.6221 13.1685H26.0199C26.8252 13.1685 27.4791 13.8089 27.4791 14.5977V22.5089C27.4791 22.7521 27.2732 22.9537 27.025 22.9537C26.7768 22.9537 26.5709 22.7521 26.5709 22.5089V14.5977C26.5709 14.3012 26.3227 14.058 26.0199 14.058H18.0762V28.1132H24.7787V25.7885C24.7787 25.5454 24.9846 25.3437 25.2328 25.3437C25.4811 25.3437 25.6869 25.5454 25.6869 25.7885V28.558C25.6869 28.8012 25.4811 29.0028 25.2328 29.0028Z" fill="white"/>
<path d="M29.8656 28.9992H17.623C17.3748 28.9992 17.1689 28.7976 17.1689 28.5544V25.7849C17.1689 25.5417 17.3748 25.3401 17.623 25.3401H30.5437C30.792 25.3401 30.9979 25.5417 30.9979 25.7849V27.8843C30.9979 28.501 30.4893 28.9992 29.8656 28.9992ZM18.0771 28.1096H29.8656C29.9928 28.1096 30.0957 28.0088 30.0957 27.8843V26.2297H18.0771V28.1096Z" fill="white"/>
<path d="M30.5465 26.2347H25.2305C24.9822 26.2347 24.7764 26.033 24.7764 25.7899V24.8766C24.7764 23.2635 26.1145 21.9529 27.7613 21.9529H28.0156C29.6625 21.9529 31.0006 23.2635 31.0006 24.8766V25.7899C31.0006 26.033 30.7947 26.2347 30.5465 26.2347ZM25.6846 25.3451H30.0924V24.8766C30.0924 23.7557 29.16 22.8425 28.0156 22.8425H27.7613C26.617 22.8425 25.6846 23.7557 25.6846 24.8766V25.3451Z" fill="white"/>
<path d="M4.10313 28.9992H1.13633C0.506641 28.9992 -0.00195312 28.501 -0.00195312 27.8843V25.7849C-0.00195312 25.5417 0.203906 25.3401 0.452148 25.3401H4.10313C4.35137 25.3401 4.55723 25.5417 4.55723 25.7849V28.5544C4.55723 28.8035 4.35137 28.9992 4.10313 28.9992ZM0.90625 26.2356V27.8902C0.90625 28.0147 1.00918 28.1155 1.13633 28.1155H3.64902V26.2356H0.90625Z" fill="white"/>
<path d="M4.10313 26.2347H0.452148C0.203906 26.2347 -0.00195312 26.033 -0.00195312 25.7899V25.6238C-0.00195312 23.6016 1.68125 21.9529 3.7459 21.9529H4.10313C4.35137 21.9529 4.55723 22.1545 4.55723 22.3977V25.784C4.55723 26.033 4.35137 26.2347 4.10313 26.2347ZM0.924414 25.3451H3.64902V22.8484C2.22617 22.8958 1.06367 23.9752 0.924414 25.3451Z" fill="white"/>
<path d="M22.3246 14.0555H17.6201C17.3719 14.0555 17.166 13.8539 17.166 13.6107V1.00846C17.166 0.830547 17.275 0.670425 17.4445 0.599259C17.6141 0.528093 17.8078 0.563676 17.935 0.688216L22.1854 4.71501C22.5607 5.07083 22.7727 5.56306 22.7727 6.06715V11.5113C22.7727 11.7545 22.5668 11.9561 22.3186 11.9561C22.0703 11.9561 21.8645 11.7545 21.8645 11.5113V6.06715C21.8645 5.80028 21.7494 5.53934 21.5557 5.34957L18.0742 2.05222V13.1659H22.3246C22.5729 13.1659 22.7787 13.3676 22.7787 13.6107C22.7787 13.8539 22.5729 14.0555 22.3246 14.0555Z" fill="white"/>
<path d="M7.41016 4.81952C7.16191 4.81952 6.95605 4.61788 6.95605 4.37473V1.36798C6.95605 0.614814 7.58574 -0.00195312 8.35469 -0.00195312H8.45156C9.22051 -0.00195312 9.8502 0.614814 9.8502 1.36798V3.71645C9.8502 3.9596 9.64434 4.16124 9.39609 4.16124C9.14785 4.16124 8.94199 3.9596 8.94199 3.71645V1.36798C8.94199 1.10111 8.72402 0.887617 8.45156 0.887617H8.35469C8.08223 0.887617 7.86426 1.10111 7.86426 1.36798V4.37473C7.86426 4.61788 7.6584 4.81952 7.41016 4.81952Z" fill="white"/>
<path d="M7.40924 8.18264C7.22154 8.18264 7.0399 8.06403 6.97935 7.88019C6.90064 7.6489 7.02779 7.39389 7.26392 7.31679L17.4782 3.95422C17.7143 3.87712 17.9747 4.00166 18.0534 4.23295C18.1321 4.46424 18.0049 4.71925 17.7688 4.79634L7.55455 8.15892C7.50611 8.17078 7.45767 8.18264 7.40924 8.18264Z" fill="white"/>
<path d="M7.40924 11.3804C7.22154 11.3804 7.0399 11.2618 6.97935 11.0779C6.90064 10.8467 7.02779 10.5916 7.26392 10.5145L17.4782 7.15197C17.7143 7.07487 17.9747 7.19941 18.0534 7.4307C18.1321 7.66199 18.0049 7.917 17.7688 7.9941L7.55455 11.3567C7.50611 11.3745 7.45767 11.3804 7.40924 11.3804Z" fill="white"/>
<path d="M7.40924 14.584C7.22154 14.584 7.0399 14.4654 6.97935 14.2816C6.90064 14.0503 7.02779 13.7953 7.26392 13.7182L17.4782 10.3556C17.7143 10.2785 17.9747 10.403 18.0534 10.6343C18.1321 10.8656 18.0049 11.1206 17.7688 11.1977L7.55455 14.5603C7.50611 14.5721 7.45767 14.584 7.40924 14.584Z" fill="white"/>
<path d="M7.40924 17.7818C7.22154 17.7818 7.0399 17.6632 6.97935 17.4793C6.90064 17.248 7.02779 16.993 7.26392 16.9159L17.4782 13.5533C17.7143 13.4762 17.9747 13.6008 18.0534 13.8321C18.1321 14.0634 18.0049 14.3184 17.7688 14.3955L7.55455 17.758C7.50611 17.7758 7.45767 17.7818 7.40924 17.7818Z" fill="white"/>
<path d="M7.41314 20.983C7.22545 20.983 7.04381 20.8644 6.98326 20.6805C6.90455 20.4493 7.0317 20.1942 7.26783 20.1171L8.95103 19.5597C9.18717 19.4826 9.44752 19.6071 9.52623 19.8384C9.60494 20.0697 9.47779 20.3247 9.24166 20.4018L7.55846 20.9593C7.51002 20.9771 7.45553 20.983 7.41314 20.983Z" fill="#A4A4A3"/>
<path d="M11.1329 19.7578C10.9452 19.7578 10.7635 19.6392 10.703 19.4553C10.6243 19.224 10.7514 18.969 10.9876 18.8919L17.4782 16.757C17.7143 16.6799 17.9747 16.8044 18.0534 17.0357C18.1321 17.267 18.0049 17.522 17.7688 17.5991L11.2782 19.734C11.2297 19.7518 11.1753 19.7578 11.1329 19.7578Z" fill="white"/>
<path d="M12.7918 28.9992H7.40918C7.16094 28.9992 6.95508 28.7976 6.95508 28.5544V24.7767C6.95508 24.2845 7.29414 23.8515 7.77246 23.7211L11.9986 22.5646C12.0834 22.5409 12.1742 22.5291 12.265 22.5291C12.8039 22.5291 13.2459 22.962 13.2459 23.4898V28.5544C13.2459 28.8035 13.04 28.9992 12.7918 28.9992ZM7.86328 28.1096H12.3377V23.4898C12.3377 23.4423 12.2953 23.4186 12.265 23.4186C12.259 23.4186 12.2529 23.4186 12.2469 23.4186L8.0207 24.5751C7.92988 24.5988 7.86328 24.6818 7.86328 24.7767V28.1096Z" fill="white"/>
<path d="M24.5199 17.7224H20.0637C19.6398 17.7224 19.3008 17.3844 19.3008 16.9752V15.9018C19.3008 15.4866 19.6459 15.1545 20.0637 15.1545H24.5199C24.9438 15.1545 25.2828 15.4926 25.2828 15.9018V16.9752C25.2828 17.3903 24.9438 17.7224 24.5199 17.7224ZM20.209 16.8329H24.3746V16.0441H20.209V16.8329Z" fill="#A4A4A3"/>
<path d="M24.5199 21.107H20.0637C19.6398 21.107 19.3008 20.7689 19.3008 20.3597V19.2863C19.3008 18.8712 19.6459 18.5391 20.0637 18.5391H24.5199C24.9438 18.5391 25.2828 18.8771 25.2828 19.2863V20.3597C25.2828 20.7689 24.9438 21.107 24.5199 21.107ZM20.209 20.2174H24.3746V19.4227H20.209V20.2174Z" fill="#A4A4A3"/>
<path d="M21.5389 24.5222H20.0676C19.6438 24.5222 19.3047 24.1842 19.3047 23.775V22.7016C19.3047 22.2865 19.6498 21.9543 20.0676 21.9543H21.5389C21.9627 21.9543 22.3018 22.2924 22.3018 22.7016V23.775C22.3018 24.1842 21.9627 24.5222 21.5389 24.5222ZM20.2068 23.6327H21.3936V22.8439H20.2068V23.6327Z" fill="#A4A4A3"/>
<path d="M10.1016 29.0038C9.85332 29.0038 9.64746 28.8022 9.64746 28.5591V23.5478C9.64746 23.3047 9.85332 23.103 10.1016 23.103C10.3498 23.103 10.5557 23.3047 10.5557 23.5478V28.5591C10.5557 28.8022 10.3498 29.0038 10.1016 29.0038Z" fill="white"/>
</g>
<defs>
<clipPath id="clip0_64_230">
<rect width="31" height="29" fill="white"/>
</clipPath>
</defs>
</svg>
