<svg width="31" height="31" viewBox="0 0 31 31" fill="none" xmlns="http://www.w3.org/2000/svg">
<path d="M15.5 0C12.4344 0 9.43763 0.909059 6.88867 2.61222C4.33971 4.31538 2.35303 6.73615 1.17987 9.56841C0.00671593 12.4007 -0.300236 15.5172 0.297835 18.5239C0.895906 21.5306 2.37214 24.2924 4.53985 26.4602C6.70757 28.6279 9.4694 30.1041 12.4761 30.7022C15.4828 31.3002 18.5993 30.9933 21.4316 29.8201C24.2639 28.647 26.6846 26.6603 28.3878 24.1113C30.091 21.5624 31 18.5656 31 15.5C30.9954 11.3906 29.3608 7.45079 26.455 4.54498C23.5492 1.63917 19.6094 0.00464945 15.5 0V0ZM15.5 29.9667C12.6388 29.9667 9.84179 29.1182 7.46276 27.5286C5.08373 25.939 3.2295 23.6796 2.13455 21.0362C1.0396 18.3927 0.753114 15.484 1.31131 12.6777C1.86951 9.87144 3.24733 7.29372 5.27053 5.27052C7.29373 3.24732 9.87144 1.86951 12.6777 1.31131C15.484 0.753107 18.3927 1.0396 21.0362 2.13454C23.6796 3.22949 25.939 5.08372 27.5286 7.46275C29.1182 9.84178 29.9667 12.6388 29.9667 15.5C29.9623 19.3355 28.4367 23.0126 25.7247 25.7246C23.0126 28.4367 19.3355 29.9623 15.5 29.9667Z" fill="white"/>
<path d="M15.4997 2.58325C12.945 2.58325 10.4477 3.3408 8.32357 4.7601C6.19943 6.1794 4.54387 8.19671 3.56624 10.5569C2.5886 12.9171 2.33281 15.5142 2.8312 18.0198C3.3296 20.5254 4.55979 22.827 6.36622 24.6334C8.17265 26.4398 10.4742 27.67 12.9798 28.1684C15.4854 28.6668 18.0825 28.411 20.4427 27.4334C22.8029 26.4557 24.8202 24.8002 26.2395 22.676C27.6588 20.5519 28.4163 18.0546 28.4163 15.4999C28.4125 12.0754 27.0504 8.7922 24.6289 6.37069C22.2074 3.94917 18.9242 2.58708 15.4997 2.58325ZM15.4997 27.3833C13.1494 27.3833 10.8519 26.6863 8.89765 25.3805C6.94345 24.0748 5.42033 22.2189 4.52091 20.0475C3.62149 17.8761 3.38616 15.4867 3.84468 13.1816C4.3032 10.8765 5.43498 8.75905 7.09689 7.09713C8.75881 5.43522 10.8762 4.30344 13.1814 3.84492C15.4865 3.3864 17.8758 3.62173 20.0472 4.52115C22.2186 5.42057 24.0746 6.94369 25.3803 8.89789C26.6861 10.8521 27.383 13.1496 27.383 15.4999C27.3796 18.6505 26.1265 21.6711 23.8987 23.8989C21.6709 26.1267 18.6503 27.3798 15.4997 27.3833Z" fill="white"/>
<path d="M15.5003 8.78324C15.909 8.78324 16.3086 8.66203 16.6484 8.43494C16.9883 8.20785 17.2532 7.88508 17.4096 7.50745C17.566 7.12982 17.607 6.71428 17.5272 6.31338C17.4475 5.91249 17.2506 5.54424 16.9616 5.25522C16.6726 4.96619 16.3043 4.76936 15.9034 4.68961C15.5026 4.60987 15.087 4.6508 14.7094 4.80722C14.3317 4.96364 14.009 5.22853 13.7819 5.56839C13.5548 5.90825 13.4336 6.30782 13.4336 6.71657C13.4336 7.26468 13.6513 7.79035 14.0389 8.17792C14.4265 8.5655 14.9521 8.78324 15.5003 8.78324ZM15.5003 5.68324C15.7046 5.68324 15.9044 5.74384 16.0744 5.85739C16.2443 5.97093 16.3767 6.13231 16.4549 6.32113C16.5331 6.50995 16.5536 6.71772 16.5137 6.91816C16.4739 7.11861 16.3755 7.30273 16.2309 7.44725C16.0864 7.59176 15.9023 7.69018 15.7019 7.73005C15.5014 7.76992 15.2936 7.74946 15.1048 7.67125C14.916 7.59304 14.7546 7.46059 14.6411 7.29066C14.5275 7.12073 14.4669 6.92094 14.4669 6.71657C14.4669 6.44251 14.5758 6.17968 14.7696 5.98589C14.9634 5.79211 15.2262 5.68324 15.5003 5.68324Z" fill="#A4A4A3"/>
<path d="M15.4997 9.81665C14.3757 9.81665 13.2769 10.15 12.3423 10.7745C11.4076 11.399 10.6792 12.2866 10.249 13.3251C9.81887 14.3636 9.70632 15.5063 9.92561 16.6087C10.1449 17.7112 10.6862 18.7239 11.481 19.5187C12.2758 20.3135 13.2885 20.8548 14.391 21.0741C15.4934 21.2934 16.6362 21.1809 17.6747 20.7507C18.7132 20.3205 19.6008 19.5921 20.2253 18.6575C20.8498 17.7229 21.1831 16.624 21.1831 15.5C21.1813 13.9932 20.582 12.5487 19.5165 11.4832C18.4511 10.4178 17.0065 9.81843 15.4997 9.81665ZM15.4997 20.15C14.5801 20.15 13.681 19.8773 12.9163 19.3663C12.1517 18.8554 11.5556 18.1291 11.2037 17.2795C10.8518 16.4298 10.7597 15.4948 10.9391 14.5928C11.1185 13.6908 11.5614 12.8623 12.2117 12.2119C12.862 11.5616 13.6906 11.1188 14.5926 10.9393C15.4946 10.7599 16.4295 10.852 17.2792 11.2039C18.1289 11.5559 18.8551 12.1519 19.3661 12.9166C19.877 13.6813 20.1497 14.5803 20.1497 15.5C20.1484 16.7328 19.658 17.9148 18.7863 18.7865C17.9145 19.6583 16.7326 20.1486 15.4997 20.15Z" fill="white"/>
<path d="M9.28946 11.3553C9.76759 11.355 10.2308 11.189 10.6003 10.8854C10.9697 10.5819 11.2225 10.1597 11.3155 9.69068C11.4085 9.22168 11.3361 8.73494 11.1105 8.31338C10.8848 7.89182 10.52 7.56154 10.0782 7.37881C9.63635 7.19607 9.14481 7.1722 8.68734 7.31124C8.22987 7.45029 7.83477 7.74366 7.56935 8.14136C7.30393 8.53906 7.18462 9.01649 7.23175 9.4923C7.27888 9.96811 7.48953 10.4129 7.82781 10.7508C8.01967 10.9428 8.24754 11.095 8.49837 11.1987C8.74919 11.3025 9.01803 11.3557 9.28946 11.3553ZM8.55837 8.55802C8.70293 8.41362 8.88706 8.31532 9.08747 8.27555C9.28789 8.23577 9.4956 8.2563 9.68435 8.33454C9.8731 8.41279 10.0344 8.54523 10.1479 8.71514C10.2614 8.88504 10.322 9.08478 10.322 9.28911C10.322 9.49343 10.2614 9.69317 10.1479 9.86308C10.0344 10.033 9.8731 10.1654 9.68435 10.2437C9.4956 10.3219 9.28789 10.3424 9.08747 10.3027C8.88706 10.2629 8.70293 10.1646 8.55837 10.0202C8.4623 9.92422 8.38608 9.81026 8.33408 9.68481C8.28208 9.55937 8.25531 9.4249 8.25531 9.28911C8.25531 9.15331 8.28208 9.01885 8.33408 8.8934C8.38608 8.76796 8.4623 8.65399 8.55837 8.55802Z" fill="#A4A4A3"/>
<path d="M8.78373 15.5C8.78373 15.0913 8.66252 14.6917 8.43543 14.3518C8.20834 14.012 7.88557 13.7471 7.50794 13.5907C7.1303 13.4342 6.71477 13.3933 6.31387 13.4731C5.91298 13.5528 5.54473 13.7496 5.2557 14.0387C4.96668 14.3277 4.76984 14.6959 4.6901 15.0968C4.61036 15.4977 4.65129 15.9133 4.80771 16.2909C4.96413 16.6685 5.22902 16.9913 5.56888 17.2184C5.90874 17.4455 6.30831 17.5667 6.71706 17.5667C7.26517 17.5667 7.79084 17.3489 8.17841 16.9614C8.56599 16.5738 8.78373 16.0481 8.78373 15.5ZM6.71706 16.5334C6.51268 16.5334 6.3129 16.4727 6.14297 16.3592C5.97304 16.2457 5.84059 16.0843 5.76238 15.8955C5.68417 15.7066 5.66371 15.4989 5.70358 15.2984C5.74345 15.098 5.84187 14.9139 5.98638 14.7693C6.1309 14.6248 6.31502 14.5264 6.51547 14.4865C6.71591 14.4467 6.92368 14.4671 7.1125 14.5453C7.30132 14.6236 7.4627 14.756 7.57624 14.9259C7.68979 15.0959 7.75039 15.2956 7.75039 15.5C7.75039 15.7741 7.64152 16.0369 7.44774 16.2307C7.25395 16.4245 6.99112 16.5334 6.71706 16.5334Z" fill="#A4A4A3"/>
<path d="M7.82767 20.2492C7.53873 20.5383 7.34198 20.9065 7.26231 21.3074C7.18263 21.7082 7.22361 22.1237 7.38005 22.5013C7.5365 22.8789 7.80139 23.2016 8.14123 23.4287C8.48108 23.6557 8.88061 23.7769 9.28932 23.7769C9.69804 23.7769 10.0976 23.6557 10.4374 23.4287C10.7773 23.2016 11.0421 22.8789 11.1986 22.5013C11.355 22.1237 11.396 21.7082 11.3163 21.3074C11.2367 20.9065 11.0399 20.5383 10.751 20.2492C10.3628 19.8626 9.83721 19.6455 9.28932 19.6455C8.74144 19.6455 8.21588 19.8626 7.82767 20.2492ZM10.0204 22.4419C9.87585 22.5863 9.69172 22.6846 9.49131 22.7244C9.29089 22.7642 9.08318 22.7437 8.89443 22.6654C8.70568 22.5872 8.54437 22.4547 8.43087 22.2848C8.31738 22.1149 8.2568 21.9152 8.2568 21.7108C8.2568 21.5065 8.31738 21.3068 8.43087 21.1369C8.54437 20.967 8.70568 20.8345 8.89443 20.7563C9.08318 20.678 9.29089 20.6575 9.49131 20.6973C9.69172 20.7371 9.87585 20.8354 10.0204 20.9798C10.2137 21.174 10.3222 21.4368 10.3222 21.7108C10.3222 21.9849 10.2137 22.2477 10.0204 22.4419Z" fill="#A4A4A3"/>
<path d="M15.5003 22.2166C15.0915 22.2166 14.6919 22.3378 14.3521 22.5648C14.0122 22.7919 13.7473 23.1147 13.5909 23.4923C13.4345 23.87 13.3936 24.2855 13.4733 24.6864C13.553 25.0873 13.7499 25.4555 14.0389 25.7446C14.3279 26.0336 14.6962 26.2304 15.0971 26.3102C15.498 26.3899 15.9135 26.349 16.2911 26.1926C16.6688 26.0361 16.9915 25.7713 17.2186 25.4314C17.4457 25.0915 17.5669 24.692 17.5669 24.2832C17.5669 23.7351 17.3492 23.2094 16.9616 22.8219C16.574 22.4343 16.0484 22.2166 15.5003 22.2166ZM15.5003 25.3166C15.2959 25.3166 15.0961 25.2559 14.9262 25.1424C14.7562 25.0289 14.6238 24.8675 14.5456 24.6787C14.4674 24.4898 14.4469 24.2821 14.4868 24.0816C14.5267 23.8812 14.6251 23.6971 14.7696 23.5525C14.9141 23.408 15.0982 23.3096 15.2987 23.2697C15.4991 23.2299 15.7069 23.2503 15.8957 23.3285C16.0845 23.4068 16.2459 23.5392 16.3594 23.7091C16.473 23.8791 16.5336 24.0788 16.5336 24.2832C16.5336 24.5573 16.4247 24.8201 16.2309 25.0139C16.0372 25.2077 15.7743 25.3166 15.5003 25.3166Z" fill="#A4A4A3"/>
<path d="M20.2495 20.2491C19.9606 20.5382 19.7639 20.9064 19.6842 21.3073C19.6045 21.7082 19.6455 22.1237 19.8019 22.5013C19.9584 22.8788 20.2233 23.2016 20.5631 23.4286C20.903 23.6557 21.3025 23.7769 21.7112 23.7769C22.1199 23.7769 22.5194 23.6557 22.8593 23.4286C23.1991 23.2016 23.464 22.8788 23.6205 22.5013C23.7769 22.1237 23.8179 21.7082 23.7382 21.3073C23.6585 20.9064 23.4618 20.5382 23.1728 20.2491C22.7848 19.8623 22.2592 19.645 21.7112 19.645C21.1632 19.645 20.6376 19.8623 20.2495 20.2491ZM22.4423 22.4419C22.2977 22.5863 22.1136 22.6846 21.9132 22.7243C21.7128 22.7641 21.5051 22.7436 21.3163 22.6653C21.1276 22.5871 20.9662 22.4547 20.8527 22.2848C20.7393 22.1148 20.6787 21.9151 20.6787 21.7108C20.6787 21.5065 20.7393 21.3067 20.8527 21.1368C20.9662 20.9669 21.1276 20.8345 21.3163 20.7562C21.5051 20.678 21.7128 20.6574 21.9132 20.6972C22.1136 20.737 22.2977 20.8353 22.4423 20.9797C22.6354 21.174 22.7439 21.4368 22.7439 21.7108C22.7439 21.9847 22.6354 22.2476 22.4423 22.4419Z" fill="#A4A4A3"/>
<path d="M22.2168 15.5C22.2168 15.9088 22.338 16.3083 22.5651 16.6482C22.7922 16.9881 23.1149 17.2529 23.4926 17.4094C23.8702 17.5658 24.2858 17.6067 24.6867 17.527C25.0875 17.4472 25.4558 17.2504 25.7448 16.9614C26.0338 16.6723 26.2307 16.3041 26.3104 15.9032C26.3902 15.5023 26.3492 15.0868 26.1928 14.7091C26.0364 14.3315 25.7715 14.0087 25.4316 13.7816C25.0918 13.5546 24.6922 13.4333 24.2835 13.4333C23.7353 13.4333 23.2097 13.6511 22.8221 14.0387C22.4345 14.4262 22.2168 14.9519 22.2168 15.5ZM24.2835 14.4667C24.4878 14.4667 24.6876 14.5273 24.8576 14.6408C25.0275 14.7544 25.1599 14.9158 25.2381 15.1046C25.3163 15.2934 25.3368 15.5012 25.2969 15.7016C25.2571 15.9021 25.1587 16.0862 25.0141 16.2307C24.8696 16.3752 24.6855 16.4736 24.4851 16.5135C24.2846 16.5534 24.0768 16.5329 23.888 16.4547C23.6992 16.3765 23.5378 16.244 23.4243 16.0741C23.3107 15.9042 23.2501 15.7044 23.2501 15.5C23.2501 15.226 23.359 14.9631 23.5528 14.7693C23.7466 14.5756 24.0094 14.4667 24.2835 14.4667Z" fill="#A4A4A3"/>
<path d="M21.7113 11.3553C22.1895 11.355 22.6527 11.189 23.0222 10.8854C23.3916 10.5819 23.6444 10.1597 23.7374 9.69068C23.8304 9.22168 23.758 8.73494 23.5323 8.31338C23.3067 7.89182 22.9419 7.56154 22.5001 7.37881C22.0582 7.19607 21.5667 7.1722 21.1092 7.31124C20.6517 7.45029 20.2566 7.74366 19.9912 8.14136C19.7258 8.53906 19.6065 9.01649 19.6536 9.4923C19.7008 9.96811 19.9114 10.4129 20.2497 10.7508C20.4415 10.9428 20.6694 11.095 20.9202 11.1987C21.1711 11.3025 21.4399 11.3557 21.7113 11.3553ZM20.9802 8.55802C21.1248 8.41362 21.3089 8.31532 21.5094 8.27555C21.7098 8.23577 21.9175 8.2563 22.1062 8.33454C22.295 8.41279 22.4563 8.54523 22.5698 8.71514C22.6833 8.88504 22.7439 9.08478 22.7439 9.28911C22.7439 9.49343 22.6833 9.69317 22.5698 9.86308C22.4563 10.033 22.295 10.1654 22.1062 10.2437C21.9175 10.3219 21.7098 10.3424 21.5094 10.3027C21.3089 10.2629 21.1248 10.1646 20.9802 10.0202C20.8842 9.92422 20.808 9.81026 20.756 9.68481C20.704 9.55937 20.6772 9.4249 20.6772 9.28911C20.6772 9.15331 20.704 9.01885 20.756 8.8934C20.808 8.76796 20.8842 8.65399 20.9802 8.55802Z" fill="#A4A4A3"/>
</svg>
